<?xml version="1.0" encoding="UTF-8"?>
<svg xmlns="http://www.w3.org/2000/svg" xmlns:xlink="http://www.w3.org/1999/xlink" width="270px" height="34px" viewBox="0 0 270 34" version="1.1">
<defs>
<filter id="alpha" filterUnits="objectBoundingBox" x="0%" y="0%" width="100%" height="100%">
  <feColorMatrix type="matrix" in="SourceGraphic" values="0 0 0 0 1 0 0 0 0 1 0 0 0 0 1 0 0 0 1 0"/>
</filter>
<mask id="mask0">
  <g filter="url(#alpha)">
<rect x="0" y="0" width="270" height="34" style="fill:rgb(0%,0%,0%);fill-opacity:0.968627;stroke:none;"/>
  </g>
</mask>
<clipPath id="clip1">
  <rect x="0" y="0" width="270" height="34"/>
</clipPath>
<g id="surface5" clip-path="url(#clip1)">
<path style=" stroke:none;fill-rule:evenodd;fill:rgb(94.509804%,19.215687%,14.509805%);fill-opacity:1;" d="M 69.390625 14.246094 C 69.390625 15.539062 69.390625 16.828125 69.390625 18.121094 C 67.589844 18.121094 65.789062 18.121094 63.988281 18.121094 C 63.988281 16.875 63.988281 15.628906 63.988281 14.382812 C 65.632812 14.277344 67.433594 14.234375 69.390625 14.246094 Z M 69.390625 14.246094 "/>
</g>
<mask id="mask1">
  <g filter="url(#alpha)">
<rect x="0" y="0" width="270" height="34" style="fill:rgb(0%,0%,0%);fill-opacity:0.262745;stroke:none;"/>
  </g>
</mask>
<clipPath id="clip2">
  <rect x="0" y="0" width="270" height="34"/>
</clipPath>
<g id="surface8" clip-path="url(#clip2)">
<path style=" stroke:none;fill-rule:evenodd;fill:rgb(99.607843%,100%,99.607843%);fill-opacity:1;" d="M 69.929688 14.246094 C 70.402344 14.238281 70.761719 14.257812 71.011719 14.3125 C 70.65625 15.613281 70.296875 16.90625 69.929688 18.191406 C 69.929688 16.875 69.929688 15.5625 69.929688 14.246094 Z M 69.929688 14.246094 "/>
</g>
<mask id="mask2">
  <g filter="url(#alpha)">
<rect x="0" y="0" width="270" height="34" style="fill:rgb(0%,0%,0%);fill-opacity:0.513725;stroke:none;"/>
  </g>
</mask>
<clipPath id="clip3">
  <rect x="0" y="0" width="270" height="34"/>
</clipPath>
<g id="surface11" clip-path="url(#clip3)">
<path style=" stroke:none;fill-rule:evenodd;fill:rgb(99.215686%,56.470591%,51.764709%);fill-opacity:1;" d="M 19.171875 14.382812 C 20.6875 14.335938 22.308594 14.3125 24.03125 14.3125 C 26.351562 14.300781 28.511719 14.34375 30.511719 14.449219 C 26.746094 14.394531 22.964844 14.375 19.171875 14.382812 Z M 19.171875 14.382812 "/>
</g>
<mask id="mask3">
  <g filter="url(#alpha)">
<rect x="0" y="0" width="270" height="34" style="fill:rgb(0%,0%,0%);fill-opacity:0.611765;stroke:none;"/>
  </g>
</mask>
<clipPath id="clip4">
  <rect x="0" y="0" width="270" height="34"/>
</clipPath>
<g id="surface14" clip-path="url(#clip4)">
<path style=" stroke:none;fill-rule:evenodd;fill:rgb(98.431373%,49.411765%,44.313726%);fill-opacity:1;" d="M 187.109375 14.449219 C 183.148438 14.363281 179.1875 14.363281 175.230469 14.449219 C 176.957031 14.347656 178.84375 14.300781 180.898438 14.3125 C 183.121094 14.304688 185.191406 14.347656 187.109375 14.449219 Z M 187.109375 14.449219 "/>
</g>
<mask id="mask4">
  <g filter="url(#alpha)">
<rect x="0" y="0" width="270" height="34" style="fill:rgb(0%,0%,0%);fill-opacity:0.984314;stroke:none;"/>
  </g>
</mask>
<clipPath id="clip5">
  <rect x="0" y="0" width="270" height="34"/>
</clipPath>
<g id="surface17" clip-path="url(#clip5)">
<path style=" stroke:none;fill-rule:evenodd;fill:rgb(95.294118%,25.098041%,18.431373%);fill-opacity:1;" d="M 254.609375 14.3125 C 255.683594 15.558594 256.042969 16.828125 255.691406 18.121094 C 254.789062 18.121094 253.890625 18.121094 252.988281 18.121094 C 253.109375 18.042969 252.929688 17.972656 252.449219 17.917969 C 252.121094 17.925781 251.941406 17.949219 251.910156 17.984375 C 249.21875 18.160156 246.339844 18.230469 243.269531 18.191406 C 241.511719 18.171875 240.074219 18.078125 238.949219 17.917969 C 238.769531 17.851562 238.410156 17.804688 237.871094 17.78125 C 237.691406 17.714844 237.328125 17.667969 236.789062 17.644531 C 234.691406 17.273438 234.152344 16.863281 235.171875 16.421875 C 235.804688 16.351562 236.164062 16.261719 236.25 16.148438 C 236.15625 16.082031 236.335938 16.039062 236.789062 16.015625 C 238.050781 15.902344 239.128906 15.765625 240.03125 15.605469 C 240.753906 15.519531 241.65625 15.460938 242.730469 15.4375 C 245.117188 15.382812 247.457031 15.394531 249.75 15.46875 C 250.542969 15.554688 251.441406 15.621094 252.449219 15.675781 C 252.988281 15.296875 253.167969 14.863281 252.988281 14.382812 C 253.6875 14.398438 254.226562 14.375 254.609375 14.3125 Z M 249.75 15.878906 C 250.449219 15.945312 251.167969 16.011719 251.910156 16.082031 C 252.308594 16.488281 252.492188 16.894531 252.449219 17.304688 C 251.890625 17.402344 251.53125 17.515625 251.371094 17.644531 C 249.800781 17.726562 248.179688 17.796875 246.511719 17.851562 C 245.78125 17.828125 245.0625 17.804688 244.351562 17.78125 C 239.699219 17.480469 238.171875 17.007812 239.761719 16.355469 C 240.859375 16.183594 242.027344 16.023438 243.269531 15.878906 C 245.417969 15.800781 247.578125 15.800781 249.75 15.878906 Z M 249.75 15.878906 "/>
</g>
<mask id="mask5">
  <g filter="url(#alpha)">
<rect x="0" y="0" width="270" height="34" style="fill:rgb(0%,0%,0%);fill-opacity:0.996078;stroke:none;"/>
  </g>
</mask>
<clipPath id="clip6">
  <rect x="0" y="0" width="270" height="34"/>
</clipPath>
<g id="surface20" clip-path="url(#clip6)">
<path style=" stroke:none;fill-rule:evenodd;fill:rgb(95.686275%,26.666668%,19.607843%);fill-opacity:1;" d="M 19.171875 14.382812 C 22.964844 14.375 26.746094 14.394531 30.511719 14.449219 C 31.988281 14.464844 33.25 14.53125 34.289062 14.652344 C 34.804688 14.734375 35.347656 14.8125 35.910156 14.890625 C 35.820312 14.925781 35.730469 14.960938 35.640625 14.992188 C 34.8125 15.183594 33.640625 15.320312 32.128906 15.402344 C 31.875 15.304688 31.335938 15.261719 30.511719 15.265625 C 29.066406 15.199219 27.628906 15.128906 26.191406 15.0625 C 23.84375 14.960938 21.503906 14.984375 19.171875 15.128906 C 18.175781 15.269531 17.90625 15.425781 18.359375 15.605469 C 18.800781 15.695312 19.429688 15.742188 20.25 15.742188 C 23.472656 15.824219 26.714844 15.890625 29.96875 15.945312 C 30.582031 16.0625 31.484375 16.109375 32.671875 16.082031 C 32.957031 16.214844 33.679688 16.28125 34.828125 16.285156 C 35.570312 16.445312 36.292969 16.605469 36.988281 16.761719 C 37.140625 17.136719 36.421875 17.476562 34.828125 17.78125 C 33.894531 17.816406 33.175781 17.886719 32.671875 17.984375 C 31.777344 17.996094 31.058594 18.042969 30.511719 18.121094 C 25.382812 18.332031 20.34375 18.285156 15.390625 17.984375 C 15.132812 17.890625 14.59375 17.84375 13.769531 17.851562 C 12.328125 17.804688 11.429688 17.691406 11.070312 17.511719 C 12.195312 17.4375 12.917969 17.324219 13.230469 17.171875 C 13.136719 17.101562 13.316406 17.058594 13.769531 17.035156 C 15.570312 17.148438 17.371094 17.261719 19.171875 17.375 C 22.792969 17.578125 26.300781 17.554688 29.699219 17.304688 C 29.96875 17.171875 30.058594 17.035156 29.96875 16.898438 C 29.96875 16.808594 29.609375 16.761719 28.890625 16.761719 C 24.082031 16.679688 19.402344 16.53125 14.851562 16.320312 C 11.5 15.9375 10.78125 15.496094 12.691406 14.992188 C 13.449219 14.960938 13.808594 14.894531 13.769531 14.789062 C 15.050781 14.550781 16.851562 14.414062 19.171875 14.382812 Z M 19.171875 14.382812 "/>
</g>
<mask id="mask6">
  <g filter="url(#alpha)">
<rect x="0" y="0" width="270" height="34" style="fill:rgb(0%,0%,0%);fill-opacity:0.992157;stroke:none;"/>
  </g>
</mask>
<clipPath id="clip7">
  <rect x="0" y="0" width="270" height="34"/>
</clipPath>
<g id="surface23" clip-path="url(#clip7)">
<path style=" stroke:none;fill-rule:evenodd;fill:rgb(96.078432%,30.19608%,22.745098%);fill-opacity:1;" d="M 187.109375 14.449219 C 188.21875 14.441406 189.117188 14.488281 189.808594 14.585938 C 190.652344 14.671875 191.375 14.773438 191.96875 14.890625 C 191.660156 15.03125 190.941406 15.113281 189.808594 15.128906 C 189.554688 15.035156 189.015625 14.988281 188.191406 14.992188 C 184.730469 14.785156 181.128906 14.714844 177.390625 14.789062 C 173.699219 14.925781 172.527344 15.222656 173.878906 15.675781 C 174.320312 15.765625 174.949219 15.808594 175.769531 15.808594 C 177.992188 15.878906 180.152344 15.945312 182.25 16.015625 C 183.917969 16.101562 185.71875 16.148438 187.648438 16.148438 C 193.117188 16.464844 194.46875 16.960938 191.699219 17.644531 C 190.382812 17.847656 188.851562 18.003906 187.109375 18.121094 C 181.679688 18.351562 176.457031 18.273438 171.449219 17.882812 C 170.972656 17.835938 170.613281 17.777344 170.371094 17.714844 C 170.191406 17.644531 169.828125 17.601562 169.289062 17.578125 C 168.972656 17.429688 169.511719 17.316406 170.910156 17.238281 C 171.679688 17.335938 172.578125 17.402344 173.609375 17.441406 C 174.019531 17.5625 174.742188 17.628906 175.769531 17.644531 C 176.460938 17.742188 177.363281 17.789062 178.46875 17.78125 C 179.65625 17.789062 180.824219 17.8125 181.980469 17.851562 C 183.753906 17.800781 185.464844 17.734375 187.109375 17.644531 C 188.457031 17.601562 189.179688 17.488281 189.269531 17.304688 C 189.472656 17.070312 188.933594 16.867188 187.648438 16.695312 C 182.710938 16.519531 177.847656 16.339844 173.070312 16.148438 C 172.816406 16.054688 172.273438 16.007812 171.449219 16.015625 C 171.363281 15.902344 171.003906 15.8125 170.371094 15.742188 C 170.371094 15.492188 170.371094 15.242188 170.371094 14.992188 C 170.277344 14.925781 170.457031 14.882812 170.910156 14.859375 C 171.449219 14.835938 171.808594 14.789062 171.988281 14.722656 C 172.691406 14.5625 173.773438 14.472656 175.230469 14.449219 C 179.1875 14.363281 183.148438 14.363281 187.109375 14.449219 Z M 187.109375 14.449219 "/>
</g>
<mask id="mask7">
  <g filter="url(#alpha)">
<rect x="0" y="0" width="270" height="34" style="fill:rgb(0%,0%,0%);fill-opacity:0.168627;stroke:none;"/>
  </g>
</mask>
<clipPath id="clip8">
  <rect x="0" y="0" width="270" height="34"/>
</clipPath>
<g id="surface26" clip-path="url(#clip8)">
<path style=" stroke:none;fill-rule:evenodd;fill:rgb(100%,89.411765%,88.235295%);fill-opacity:1;" d="M 218.429688 14.789062 C 221.519531 15.023438 222.777344 14.921875 222.210938 14.484375 C 221.144531 14.449219 220.066406 14.4375 218.96875 14.449219 C 220.582031 14.269531 222.113281 14.292969 223.558594 14.519531 C 224 14.960938 222.46875 15.109375 218.96875 14.960938 C 218.5625 14.914062 218.382812 14.859375 218.429688 14.789062 Z M 218.429688 14.789062 "/>
</g>
<mask id="mask8">
  <g filter="url(#alpha)">
<rect x="0" y="0" width="270" height="34" style="fill:rgb(0%,0%,0%);fill-opacity:0.180392;stroke:none;"/>
  </g>
</mask>
<clipPath id="clip9">
  <rect x="0" y="0" width="270" height="34"/>
</clipPath>
<g id="surface29" clip-path="url(#clip9)">
<path style=" stroke:none;fill-rule:evenodd;fill:rgb(100%,94.901961%,94.117647%);fill-opacity:1;" d="M 230.308594 14.382812 C 232.277344 14.449219 232.910156 14.605469 232.199219 14.859375 C 231.5 14.957031 230.597656 15.003906 229.5 14.992188 C 228.414062 15.007812 227.605469 14.960938 227.070312 14.859375 C 230.925781 14.984375 232.007812 14.824219 230.308594 14.382812 Z M 230.308594 14.382812 "/>
</g>
<mask id="mask9">
  <g filter="url(#alpha)">
<rect x="0" y="0" width="270" height="34" style="fill:rgb(0%,0%,0%);fill-opacity:0.0117647;stroke:none;"/>
  </g>
</mask>
<clipPath id="clip10">
  <rect x="0" y="0" width="270" height="34"/>
</clipPath>
<g id="surface32" clip-path="url(#clip10)">
<path style=" stroke:none;fill-rule:evenodd;fill:rgb(100%,97.647059%,97.647059%);fill-opacity:1;" d="M 252.449219 14.382812 C 252.449219 14.8125 252.449219 15.242188 252.449219 15.675781 C 251.441406 15.621094 250.542969 15.554688 249.75 15.46875 C 250.464844 15.457031 251.09375 15.480469 251.640625 15.539062 C 251.734375 15.140625 252.003906 14.753906 252.449219 14.382812 Z M 252.449219 14.382812 "/>
</g>
<mask id="mask10">
  <g filter="url(#alpha)">
<rect x="0" y="0" width="270" height="34" style="fill:rgb(0%,0%,0%);fill-opacity:0.980392;stroke:none;"/>
  </g>
</mask>
<clipPath id="clip11">
  <rect x="0" y="0" width="270" height="34"/>
</clipPath>
<g id="surface35" clip-path="url(#clip11)">
<path style=" stroke:none;fill-rule:evenodd;fill:rgb(94.509804%,21.568628%,16.470589%);fill-opacity:1;" d="M 218.96875 14.449219 C 220.066406 14.4375 221.144531 14.449219 222.210938 14.484375 C 222.777344 14.921875 221.519531 15.023438 218.429688 14.789062 C 218.5 14.671875 218.679688 14.558594 218.96875 14.449219 Z M 218.96875 14.449219 "/>
</g>
<mask id="mask11">
  <g filter="url(#alpha)">
<rect x="0" y="0" width="270" height="34" style="fill:rgb(0%,0%,0%);fill-opacity:0.992157;stroke:none;"/>
  </g>
</mask>
<clipPath id="clip12">
  <rect x="0" y="0" width="270" height="34"/>
</clipPath>
<g id="surface38" clip-path="url(#clip12)">
<path style=" stroke:none;fill-rule:evenodd;fill:rgb(98.039216%,37.64706%,29.411766%);fill-opacity:1;" d="M 230.308594 14.382812 C 232.007812 14.824219 230.925781 14.984375 227.070312 14.859375 C 226.199219 14.652344 226.558594 14.480469 228.148438 14.347656 C 228.996094 14.296875 229.714844 14.308594 230.308594 14.382812 Z M 230.308594 14.382812 "/>
</g>
<mask id="mask12">
  <g filter="url(#alpha)">
<rect x="0" y="0" width="270" height="34" style="fill:rgb(0%,0%,0%);fill-opacity:0.0627451;stroke:none;"/>
  </g>
</mask>
<clipPath id="clip13">
  <rect x="0" y="0" width="270" height="34"/>
</clipPath>
<g id="surface41" clip-path="url(#clip13)">
<path style=" stroke:none;fill-rule:evenodd;fill:rgb(100%,87.450981%,85.882354%);fill-opacity:1;" d="M 218.96875 14.449219 C 218.679688 14.558594 218.5 14.671875 218.429688 14.789062 C 217.65625 14.65625 217.835938 14.542969 218.96875 14.449219 Z M 218.96875 14.449219 "/>
</g>
<mask id="mask13">
  <g filter="url(#alpha)">
<rect x="0" y="0" width="270" height="34" style="fill:rgb(0%,0%,0%);fill-opacity:0.282353;stroke:none;"/>
  </g>
</mask>
<clipPath id="clip14">
  <rect x="0" y="0" width="270" height="34"/>
</clipPath>
<g id="surface44" clip-path="url(#clip14)">
<path style=" stroke:none;fill-rule:evenodd;fill:rgb(100%,95.294118%,95.294118%);fill-opacity:1;" d="M 34.289062 14.652344 C 36.167969 14.660156 36.976562 14.773438 36.71875 14.992188 C 35.664062 15.140625 35.035156 15.289062 34.828125 15.4375 C 33.8125 15.488281 32.910156 15.476562 32.128906 15.402344 C 33.640625 15.320312 34.8125 15.183594 35.640625 14.992188 C 35.730469 14.960938 35.820312 14.925781 35.910156 14.890625 C 35.347656 14.8125 34.804688 14.734375 34.289062 14.652344 Z M 34.289062 14.652344 "/>
</g>
<mask id="mask14">
  <g filter="url(#alpha)">
<rect x="0" y="0" width="270" height="34" style="fill:rgb(0%,0%,0%);fill-opacity:0.0627451;stroke:none;"/>
  </g>
</mask>
<clipPath id="clip15">
  <rect x="0" y="0" width="270" height="34"/>
</clipPath>
<g id="surface47" clip-path="url(#clip15)">
<path style=" stroke:none;fill-rule:evenodd;fill:rgb(96.078432%,86.666667%,83.529413%);fill-opacity:1;" d="M 171.988281 14.722656 C 171.808594 14.789062 171.449219 14.835938 170.910156 14.859375 C 170.910156 14.765625 171.269531 14.722656 171.988281 14.722656 Z M 171.988281 14.722656 "/>
</g>
<mask id="mask15">
  <g filter="url(#alpha)">
<rect x="0" y="0" width="270" height="34" style="fill:rgb(0%,0%,0%);fill-opacity:0.156863;stroke:none;"/>
  </g>
</mask>
<clipPath id="clip16">
  <rect x="0" y="0" width="270" height="34"/>
</clipPath>
<g id="surface50" clip-path="url(#clip16)">
<path style=" stroke:none;fill-rule:evenodd;fill:rgb(100%,94.509804%,93.725491%);fill-opacity:1;" d="M 189.808594 14.585938 C 191.304688 14.625 192.5625 14.714844 193.589844 14.859375 C 193.050781 14.949219 192.511719 15.039062 191.96875 15.128906 C 191.183594 15.21875 190.460938 15.21875 189.808594 15.128906 C 190.941406 15.113281 191.660156 15.03125 191.96875 14.890625 C 191.375 14.773438 190.652344 14.671875 189.808594 14.585938 Z M 189.808594 14.585938 "/>
</g>
<mask id="mask16">
  <g filter="url(#alpha)">
<rect x="0" y="0" width="270" height="34" style="fill:rgb(0%,0%,0%);fill-opacity:0.211765;stroke:none;"/>
  </g>
</mask>
<clipPath id="clip17">
  <rect x="0" y="0" width="270" height="34"/>
</clipPath>
<g id="surface53" clip-path="url(#clip17)">
<path style=" stroke:none;fill-rule:evenodd;fill:rgb(100%,63.137257%,59.215689%);fill-opacity:1;" d="M 13.769531 14.789062 C 13.808594 14.894531 13.449219 14.960938 12.691406 14.992188 C 12.652344 14.890625 13.011719 14.820312 13.769531 14.789062 Z M 13.769531 14.789062 "/>
</g>
<mask id="mask17">
  <g filter="url(#alpha)">
<rect x="0" y="0" width="270" height="34" style="fill:rgb(0%,0%,0%);fill-opacity:0.254902;stroke:none;"/>
  </g>
</mask>
<clipPath id="clip18">
  <rect x="0" y="0" width="270" height="34"/>
</clipPath>
<g id="surface56" clip-path="url(#clip18)">
<path style=" stroke:none;fill-rule:evenodd;fill:rgb(100%,92.156863%,91.764706%);fill-opacity:1;" d="M 177.390625 14.789062 C 173.871094 15.058594 173.328125 15.398438 175.769531 15.808594 C 174.949219 15.808594 174.320312 15.765625 173.878906 15.675781 C 172.527344 15.222656 173.699219 14.925781 177.390625 14.789062 Z M 177.390625 14.789062 "/>
</g>
<mask id="mask18">
  <g filter="url(#alpha)">
<rect x="0" y="0" width="270" height="34" style="fill:rgb(0%,0%,0%);fill-opacity:0.352941;stroke:none;"/>
  </g>
</mask>
<clipPath id="clip19">
  <rect x="0" y="0" width="270" height="34"/>
</clipPath>
<g id="surface59" clip-path="url(#clip19)">
<path style=" stroke:none;fill-rule:evenodd;fill:rgb(100%,78.039217%,75.294119%);fill-opacity:1;" d="M 188.191406 14.992188 C 189.015625 14.988281 189.554688 15.035156 189.808594 15.128906 C 188.984375 15.136719 188.445312 15.089844 188.191406 14.992188 Z M 188.191406 14.992188 "/>
</g>
<mask id="mask19">
  <g filter="url(#alpha)">
<rect x="0" y="0" width="270" height="34" style="fill:rgb(0%,0%,0%);fill-opacity:0.223529;stroke:none;"/>
  </g>
</mask>
<clipPath id="clip20">
  <rect x="0" y="0" width="270" height="34"/>
</clipPath>
<g id="surface62" clip-path="url(#clip20)">
<path style=" stroke:none;fill-rule:evenodd;fill:rgb(96.470588%,46.666667%,43.529412%);fill-opacity:1;" d="M 254.609375 14.3125 C 254.226562 14.375 253.6875 14.398438 252.988281 14.382812 C 253.167969 14.863281 252.988281 15.296875 252.449219 15.675781 C 252.449219 15.242188 252.449219 14.8125 252.449219 14.382812 C 253.027344 14.320312 253.746094 14.296875 254.609375 14.3125 Z M 254.609375 14.3125 "/>
</g>
<mask id="mask20">
  <g filter="url(#alpha)">
<rect x="0" y="0" width="270" height="34" style="fill:rgb(0%,0%,0%);fill-opacity:0.211765;stroke:none;"/>
  </g>
</mask>
<clipPath id="clip21">
  <rect x="0" y="0" width="270" height="34"/>
</clipPath>
<g id="surface65" clip-path="url(#clip21)">
<path style=" stroke:none;fill-rule:evenodd;fill:rgb(100%,92.54902%,92.156863%);fill-opacity:1;" d="M 26.191406 15.0625 C 23.914062 15.035156 21.753906 15.078125 19.710938 15.199219 C 18.464844 15.390625 18.648438 15.570312 20.25 15.742188 C 19.429688 15.742188 18.800781 15.695312 18.359375 15.605469 C 17.90625 15.425781 18.175781 15.269531 19.171875 15.128906 C 21.503906 14.984375 23.84375 14.960938 26.191406 15.0625 Z M 26.191406 15.0625 "/>
</g>
<mask id="mask21">
  <g filter="url(#alpha)">
<rect x="0" y="0" width="270" height="34" style="fill:rgb(0%,0%,0%);fill-opacity:0.333333;stroke:none;"/>
  </g>
</mask>
<clipPath id="clip22">
  <rect x="0" y="0" width="270" height="34"/>
</clipPath>
<g id="surface68" clip-path="url(#clip22)">
<path style=" stroke:none;fill-rule:evenodd;fill:rgb(99.607843%,70.19608%,67.058825%);fill-opacity:1;" d="M 30.511719 15.265625 C 31.335938 15.261719 31.875 15.304688 32.128906 15.402344 C 31.304688 15.40625 30.765625 15.363281 30.511719 15.265625 Z M 30.511719 15.265625 "/>
</g>
<mask id="mask22">
  <g filter="url(#alpha)">
<rect x="0" y="0" width="270" height="34" style="fill:rgb(0%,0%,0%);fill-opacity:0.984314;stroke:none;"/>
  </g>
</mask>
<clipPath id="clip23">
  <rect x="0" y="0" width="270" height="34"/>
</clipPath>
<g id="surface71" clip-path="url(#clip23)">
<path style=" stroke:none;fill-rule:evenodd;fill:rgb(96.078432%,27.843139%,20.784314%);fill-opacity:1;" d="M 56.429688 15.46875 C 57.65625 15.667969 58.738281 15.871094 59.671875 16.082031 C 60.207031 16.773438 60.386719 17.476562 60.210938 18.191406 C 58.050781 18.191406 55.890625 18.191406 53.730469 18.191406 C 53.808594 17.953125 53.269531 17.929688 52.109375 18.121094 C 49.617188 18.175781 47.09375 18.199219 44.550781 18.191406 C 40.273438 18.066406 38.386719 17.726562 38.878906 17.171875 C 39.644531 16.84375 41.355469 16.628906 44.011719 16.523438 C 47.023438 16.46875 49.996094 16.480469 52.921875 16.558594 C 53.1875 16.425781 53.277344 16.289062 53.191406 16.148438 C 53.011719 16.082031 52.648438 16.035156 52.109375 16.015625 C 50.707031 15.960938 49.269531 15.9375 47.789062 15.945312 C 46.125 15.960938 44.507812 16.007812 42.929688 16.082031 C 42.34375 16.070312 41.804688 16.046875 41.308594 16.015625 C 40.574219 15.910156 40.035156 15.785156 39.691406 15.640625 C 43.769531 15.300781 48.269531 15.1875 53.191406 15.300781 C 54.460938 15.316406 55.539062 15.371094 56.429688 15.46875 Z M 52.109375 17.035156 C 54.125 17.429688 53.226562 17.632812 49.410156 17.644531 C 48.019531 17.648438 46.757812 17.605469 45.628906 17.511719 C 45.535156 17.367188 45.714844 17.230469 46.171875 17.101562 C 48.113281 17.042969 50.09375 17.023438 52.109375 17.035156 Z M 52.109375 17.035156 "/>
</g>
<mask id="mask23">
  <g filter="url(#alpha)">
<rect x="0" y="0" width="270" height="34" style="fill:rgb(0%,0%,0%);fill-opacity:0.992157;stroke:none;"/>
  </g>
</mask>
<clipPath id="clip24">
  <rect x="0" y="0" width="270" height="34"/>
</clipPath>
<g id="surface74" clip-path="url(#clip24)">
<path style=" stroke:none;fill-rule:evenodd;fill:rgb(95.686275%,25.882354%,19.215687%);fill-opacity:1;" d="M 80.191406 15.335938 C 80.109375 15.570312 80.648438 15.59375 81.808594 15.402344 C 84.617188 15.234375 87.5 15.222656 90.449219 15.367188 C 90.75 15.394531 90.929688 15.429688 90.988281 15.46875 C 91.460938 15.625 92.183594 15.671875 93.148438 15.605469 C 96.632812 15.246094 100.414062 15.179688 104.488281 15.402344 C 104.902344 15.523438 105.621094 15.589844 106.648438 15.605469 C 107.566406 15.792969 108.195312 15.996094 108.539062 16.21875 C 108.808594 16.875 108.898438 17.53125 108.808594 18.191406 C 106.648438 18.191406 104.488281 18.191406 102.328125 18.191406 C 102.558594 17.503906 102.289062 16.824219 101.519531 16.148438 C 99.773438 15.992188 97.886719 15.96875 95.851562 16.082031 C 95.3125 16.074219 94.863281 16.097656 94.5 16.148438 C 94.230469 16.828125 94.140625 17.507812 94.230469 18.191406 C 92.25 18.191406 90.269531 18.191406 88.289062 18.191406 C 88.457031 17.527344 88.277344 16.871094 87.75 16.21875 C 87.75 16.082031 87.210938 16.015625 86.128906 16.015625 C 84.871094 15.921875 83.609375 15.921875 82.351562 16.015625 C 81.53125 16.015625 80.902344 16.058594 80.460938 16.148438 C 80.191406 16.828125 80.101562 17.507812 80.191406 18.191406 C 78.03125 18.191406 75.871094 18.191406 73.710938 18.191406 C 74.339844 17.257812 74.339844 16.328125 73.710938 15.402344 C 74.515625 15.351562 75.324219 15.304688 76.140625 15.265625 C 77.4375 15.253906 78.785156 15.277344 80.191406 15.335938 Z M 80.191406 15.335938 "/>
</g>
<mask id="mask24">
  <g filter="url(#alpha)">
<rect x="0" y="0" width="270" height="34" style="fill:rgb(0%,0%,0%);fill-opacity:0.27451;stroke:none;"/>
  </g>
</mask>
<clipPath id="clip25">
  <rect x="0" y="0" width="270" height="34"/>
</clipPath>
<g id="surface77" clip-path="url(#clip25)">
<path style=" stroke:none;fill-rule:evenodd;fill:rgb(99.607843%,94.509804%,94.509804%);fill-opacity:1;" d="M 80.191406 15.335938 C 80.789062 15.335938 81.328125 15.359375 81.808594 15.402344 C 80.648438 15.59375 80.109375 15.570312 80.191406 15.335938 Z M 80.191406 15.335938 "/>
</g>
<mask id="mask25">
  <g filter="url(#alpha)">
<rect x="0" y="0" width="270" height="34" style="fill:rgb(0%,0%,0%);fill-opacity:0.992157;stroke:none;"/>
  </g>
</mask>
<clipPath id="clip26">
  <rect x="0" y="0" width="270" height="34"/>
</clipPath>
<g id="surface80" clip-path="url(#clip26)">
<path style=" stroke:none;fill-rule:evenodd;fill:rgb(95.294118%,25.098041%,18.82353%);fill-opacity:1;" d="M 129.328125 15.46875 C 129.871094 15.582031 130.589844 15.675781 131.488281 15.742188 C 132.496094 16.550781 132.855469 17.367188 132.570312 18.191406 C 130.589844 18.191406 128.609375 18.191406 126.628906 18.191406 C 126.710938 17.953125 126.171875 17.929688 125.011719 18.121094 C 122.515625 18.175781 119.996094 18.199219 117.449219 18.191406 C 112.105469 18.003906 110.484375 17.597656 112.589844 16.964844 C 113.347656 16.933594 113.710938 16.867188 113.671875 16.761719 C 114.628906 16.667969 115.707031 16.589844 116.910156 16.523438 C 119.925781 16.46875 122.894531 16.480469 125.820312 16.558594 C 126.085938 16.445312 126.175781 16.332031 126.089844 16.21875 C 126.089844 16.082031 125.550781 16.015625 124.46875 16.015625 C 123.457031 15.957031 122.375 15.933594 121.230469 15.945312 C 119.367188 15.949219 117.566406 15.992188 115.828125 16.082031 C 115.246094 16.070312 114.703125 16.046875 114.210938 16.015625 C 113.472656 15.898438 112.933594 15.761719 112.589844 15.605469 C 116.949219 15.296875 121.628906 15.195312 126.628906 15.300781 C 127.707031 15.324219 128.605469 15.382812 129.328125 15.46875 Z M 125.011719 17.035156 C 125.898438 17.167969 126.261719 17.324219 126.089844 17.511719 C 123.828125 17.652344 121.488281 17.675781 119.070312 17.578125 C 118.167969 17.410156 118.351562 17.261719 119.609375 17.136719 C 121.332031 17.046875 123.132812 17.011719 125.011719 17.035156 Z M 125.011719 17.035156 "/>
</g>
<mask id="mask26">
  <g filter="url(#alpha)">
<rect x="0" y="0" width="270" height="34" style="fill:rgb(0%,0%,0%);fill-opacity:0.980392;stroke:none;"/>
  </g>
</mask>
<clipPath id="clip27">
  <rect x="0" y="0" width="270" height="34"/>
</clipPath>
<g id="surface83" clip-path="url(#clip27)">
<path style=" stroke:none;fill-rule:evenodd;fill:rgb(95.686275%,27.450982%,20.392157%);fill-opacity:1;" d="M 154.171875 15.46875 C 155.875 15.652344 157.042969 15.878906 157.679688 16.148438 C 157.949219 16.828125 158.039062 17.507812 157.949219 18.191406 C 155.789062 18.191406 153.628906 18.191406 151.46875 18.191406 C 151.621094 17.527344 151.441406 16.871094 150.929688 16.21875 C 150.929688 16.082031 150.390625 16.015625 149.308594 16.015625 C 148.050781 16.015625 146.789062 16.015625 145.53125 16.015625 C 144.628906 16.03125 143.816406 16.078125 143.101562 16.148438 C 142.828125 16.828125 142.742188 17.507812 142.828125 18.191406 C 140.671875 18.191406 138.511719 18.191406 136.351562 18.191406 C 136.261719 17.238281 136.351562 16.285156 136.621094 15.335938 C 138.179688 15.292969 139.710938 15.269531 141.210938 15.265625 C 142.34375 15.273438 143.15625 15.34375 143.640625 15.46875 C 145.191406 15.308594 146.988281 15.242188 149.039062 15.265625 C 150.03125 15.277344 151.019531 15.289062 152.011719 15.300781 C 152.992188 15.3125 153.710938 15.371094 154.171875 15.46875 Z M 154.171875 15.46875 "/>
</g>
<mask id="mask27">
  <g filter="url(#alpha)">
<rect x="0" y="0" width="270" height="34" style="fill:rgb(0%,0%,0%);fill-opacity:0.360784;stroke:none;"/>
  </g>
</mask>
<clipPath id="clip28">
  <rect x="0" y="0" width="270" height="34"/>
</clipPath>
<g id="surface86" clip-path="url(#clip28)">
<path style=" stroke:none;fill-rule:evenodd;fill:rgb(100%,80.784315%,78.823531%);fill-opacity:1;" d="M 170.371094 14.992188 C 170.371094 15.242188 170.371094 15.492188 170.371094 15.742188 C 169.085938 15.496094 169.085938 15.246094 170.371094 14.992188 Z M 170.371094 14.992188 "/>
</g>
<mask id="mask28">
  <g filter="url(#alpha)">
<rect x="0" y="0" width="270" height="34" style="fill:rgb(0%,0%,0%);fill-opacity:0.00784314;stroke:none;"/>
  </g>
</mask>
<clipPath id="clip29">
  <rect x="0" y="0" width="270" height="34"/>
</clipPath>
<g id="surface89" clip-path="url(#clip29)">
<path style=" stroke:none;fill-rule:evenodd;fill:rgb(100%,87.450981%,86.274511%);fill-opacity:1;" d="M 104.488281 15.402344 C 105.519531 15.417969 106.238281 15.484375 106.648438 15.605469 C 105.621094 15.589844 104.902344 15.523438 104.488281 15.402344 Z M 104.488281 15.402344 "/>
</g>
<mask id="mask29">
  <g filter="url(#alpha)">
<rect x="0" y="0" width="270" height="34" style="fill:rgb(0%,0%,0%);fill-opacity:0.215686;stroke:none;"/>
  </g>
</mask>
<clipPath id="clip30">
  <rect x="0" y="0" width="270" height="34"/>
</clipPath>
<g id="surface92" clip-path="url(#clip30)">
<path style=" stroke:none;fill-rule:evenodd;fill:rgb(100%,99.215686%,99.215686%);fill-opacity:1;" d="M 218.96875 15.46875 C 220.261719 15.378906 221.613281 15.378906 223.019531 15.46875 C 223.378906 16.582031 223.378906 17.691406 223.019531 18.800781 C 221.527344 19.269531 218.917969 19.425781 215.191406 19.277344 C 218.210938 19.328125 220.460938 19.195312 221.941406 18.871094 C 222.210938 17.738281 222.300781 16.605469 222.210938 15.46875 C 221.128906 15.46875 220.050781 15.46875 218.96875 15.46875 Z M 218.96875 15.46875 "/>
</g>
<mask id="mask30">
  <g filter="url(#alpha)">
<rect x="0" y="0" width="270" height="34" style="fill:rgb(0%,0%,0%);fill-opacity:0.309804;stroke:none;"/>
  </g>
</mask>
<clipPath id="clip31">
  <rect x="0" y="0" width="270" height="34"/>
</clipPath>
<g id="surface95" clip-path="url(#clip31)">
<path style=" stroke:none;fill-rule:evenodd;fill:rgb(99.607843%,100%,99.607843%);fill-opacity:1;" d="M 227.609375 15.46875 C 228.746094 15.402344 230.007812 15.382812 231.390625 15.402344 C 231.566406 16.34375 231.386719 17.273438 230.851562 18.191406 C 230.851562 17.285156 230.851562 16.375 230.851562 15.46875 C 229.769531 15.46875 228.691406 15.46875 227.609375 15.46875 Z M 227.609375 15.46875 "/>
</g>
<mask id="mask31">
  <g filter="url(#alpha)">
<rect x="0" y="0" width="270" height="34" style="fill:rgb(0%,0%,0%);fill-opacity:0.00392157;stroke:none;"/>
  </g>
</mask>
<clipPath id="clip32">
  <rect x="0" y="0" width="270" height="34"/>
</clipPath>
<g id="surface98" clip-path="url(#clip32)">
<path style=" stroke:none;fill-rule:evenodd;fill:rgb(99.607843%,94.901961%,94.509804%);fill-opacity:1;" d="M 56.429688 15.46875 C 58.710938 15.566406 59.789062 15.769531 59.671875 16.082031 C 58.738281 15.871094 57.65625 15.667969 56.429688 15.46875 Z M 56.429688 15.46875 "/>
</g>
<mask id="mask32">
  <g filter="url(#alpha)">
<rect x="0" y="0" width="270" height="34" style="fill:rgb(0%,0%,0%);fill-opacity:0.0196078;stroke:none;"/>
  </g>
</mask>
<clipPath id="clip33">
  <rect x="0" y="0" width="270" height="34"/>
</clipPath>
<g id="surface101" clip-path="url(#clip33)">
<path style=" stroke:none;fill-rule:evenodd;fill:rgb(99.607843%,87.058824%,85.882354%);fill-opacity:1;" d="M 90.988281 15.46875 C 91.832031 15.484375 92.554688 15.53125 93.148438 15.605469 C 92.183594 15.671875 91.460938 15.625 90.988281 15.46875 Z M 90.988281 15.46875 "/>
</g>
<mask id="mask33">
  <g filter="url(#alpha)">
<rect x="0" y="0" width="270" height="34" style="fill:rgb(0%,0%,0%);fill-opacity:0.00784314;stroke:none;"/>
  </g>
</mask>
<clipPath id="clip34">
  <rect x="0" y="0" width="270" height="34"/>
</clipPath>
<g id="surface104" clip-path="url(#clip34)">
<path style=" stroke:none;fill-rule:evenodd;fill:rgb(99.215686%,95.686275%,95.294118%);fill-opacity:1;" d="M 129.328125 15.46875 C 130.589844 15.492188 131.308594 15.582031 131.488281 15.742188 C 130.589844 15.675781 129.871094 15.582031 129.328125 15.46875 Z M 129.328125 15.46875 "/>
</g>
<mask id="mask34">
  <g filter="url(#alpha)">
<rect x="0" y="0" width="270" height="34" style="fill:rgb(0%,0%,0%);fill-opacity:0.992157;stroke:none;"/>
  </g>
</mask>
<clipPath id="clip35">
  <rect x="0" y="0" width="270" height="34"/>
</clipPath>
<g id="surface107" clip-path="url(#clip35)">
<path style=" stroke:none;fill-rule:evenodd;fill:rgb(96.078432%,29.019609%,21.568628%);fill-opacity:1;" d="M 209.789062 15.46875 C 211.425781 15.597656 212.59375 15.777344 213.300781 16.015625 C 213.570312 16.738281 213.660156 17.464844 213.570312 18.191406 C 212.667969 18.191406 211.769531 18.191406 210.871094 18.191406 C 211.011719 18.089844 210.832031 18 210.328125 17.917969 C 209.574219 17.988281 208.851562 18.054688 208.171875 18.121094 C 206.925781 18.226562 205.484375 18.273438 203.851562 18.257812 C 201.757812 18.285156 199.957031 18.21875 198.449219 18.054688 C 197.910156 17.941406 197.191406 17.851562 196.289062 17.78125 C 194.890625 17.523438 194.890625 17.277344 196.289062 17.035156 C 197.050781 17 197.410156 16.933594 197.371094 16.828125 C 198.195312 16.835938 198.734375 16.789062 198.988281 16.695312 C 200.625 16.589844 202.425781 16.546875 204.390625 16.558594 C 205.875 16.5625 207.316406 16.585938 208.710938 16.625 C 208.894531 16.683594 209.253906 16.707031 209.789062 16.695312 C 209.824219 16.730469 210.003906 16.753906 210.328125 16.761719 C 211.03125 16.59375 211.03125 16.433594 210.328125 16.285156 C 210.457031 16.199219 210.277344 16.128906 209.789062 16.082031 C 208.796875 15.941406 207.539062 15.847656 206.011719 15.808594 C 203.519531 15.71875 201.089844 15.761719 198.71875 15.945312 C 197.707031 15.871094 197.257812 15.757812 197.371094 15.605469 C 201.417969 15.363281 205.554688 15.316406 209.789062 15.46875 Z M 209.789062 17.035156 C 209.789062 17.238281 209.789062 17.441406 209.789062 17.644531 C 207.625 17.84375 205.285156 17.910156 202.769531 17.851562 C 199.605469 17.621094 199.246094 17.328125 201.691406 16.964844 C 204.441406 16.875 207.140625 16.898438 209.789062 17.035156 Z M 209.789062 17.035156 "/>
</g>
<mask id="mask35">
  <g filter="url(#alpha)">
<rect x="0" y="0" width="270" height="34" style="fill:rgb(0%,0%,0%);fill-opacity:0.984314;stroke:none;"/>
  </g>
</mask>
<clipPath id="clip36">
  <rect x="0" y="0" width="270" height="34"/>
</clipPath>
<g id="surface110" clip-path="url(#clip36)">
<path style=" stroke:none;fill-rule:evenodd;fill:rgb(96.862745%,32.156864%,23.921569%);fill-opacity:1;" d="M 218.96875 15.46875 C 220.050781 15.46875 221.128906 15.46875 222.210938 15.46875 C 222.300781 16.605469 222.210938 17.738281 221.941406 18.871094 C 220.460938 19.195312 218.210938 19.328125 215.191406 19.277344 C 215.011719 19.277344 214.828125 19.277344 214.648438 19.277344 C 214.648438 19.164062 214.648438 19.050781 214.648438 18.9375 C 215.855469 18.957031 216.9375 18.933594 217.890625 18.871094 C 218.234375 17.726562 218.59375 16.59375 218.96875 15.46875 Z M 218.96875 15.46875 "/>
</g>
<mask id="mask36">
  <g filter="url(#alpha)">
<rect x="0" y="0" width="270" height="34" style="fill:rgb(0%,0%,0%);fill-opacity:0.964706;stroke:none;"/>
  </g>
</mask>
<clipPath id="clip37">
  <rect x="0" y="0" width="270" height="34"/>
</clipPath>
<g id="surface113" clip-path="url(#clip37)">
<path style=" stroke:none;fill-rule:evenodd;fill:rgb(97.254902%,33.333334%,24.705882%);fill-opacity:1;" d="M 227.609375 15.46875 C 228.691406 15.46875 229.769531 15.46875 230.851562 15.46875 C 230.851562 16.375 230.851562 17.285156 230.851562 18.191406 C 229.589844 18.191406 228.328125 18.191406 227.070312 18.191406 C 226.890625 17.269531 227.070312 16.363281 227.609375 15.46875 Z M 227.609375 15.46875 "/>
</g>
<mask id="mask37">
  <g filter="url(#alpha)">
<rect x="0" y="0" width="270" height="34" style="fill:rgb(0%,0%,0%);fill-opacity:0.262745;stroke:none;"/>
  </g>
</mask>
<clipPath id="clip38">
  <rect x="0" y="0" width="270" height="34"/>
</clipPath>
<g id="surface116" clip-path="url(#clip38)">
<path style=" stroke:none;fill-rule:evenodd;fill:rgb(100%,98.039216%,97.647059%);fill-opacity:1;" d="M 154.171875 15.46875 C 156.140625 15.570312 157.492188 15.753906 158.21875 16.015625 C 158.664062 16.75 158.574219 17.476562 157.949219 18.191406 C 158.039062 17.507812 157.949219 16.828125 157.679688 16.148438 C 157.042969 15.878906 155.875 15.652344 154.171875 15.46875 Z M 154.171875 15.46875 "/>
</g>
<mask id="mask38">
  <g filter="url(#alpha)">
<rect x="0" y="0" width="270" height="34" style="fill:rgb(0%,0%,0%);fill-opacity:0.270588;stroke:none;"/>
  </g>
</mask>
<clipPath id="clip39">
  <rect x="0" y="0" width="270" height="34"/>
</clipPath>
<g id="surface119" clip-path="url(#clip39)">
<path style=" stroke:none;fill-rule:evenodd;fill:rgb(100%,68.627453%,65.098041%);fill-opacity:1;" d="M 240.03125 15.605469 C 239.128906 15.765625 238.050781 15.902344 236.789062 16.015625 C 237.328125 15.808594 238.410156 15.675781 240.03125 15.605469 Z M 240.03125 15.605469 "/>
</g>
<mask id="mask39">
  <g filter="url(#alpha)">
<rect x="0" y="0" width="270" height="34" style="fill:rgb(0%,0%,0%);fill-opacity:0.027451;stroke:none;"/>
  </g>
</mask>
<clipPath id="clip40">
  <rect x="0" y="0" width="270" height="34"/>
</clipPath>
<g id="surface122" clip-path="url(#clip40)">
<path style=" stroke:none;fill-rule:evenodd;fill:rgb(100%,89.019608%,87.843138%);fill-opacity:1;" d="M 170.371094 15.742188 C 171.003906 15.8125 171.363281 15.902344 171.449219 16.015625 C 170.582031 15.960938 170.222656 15.871094 170.371094 15.742188 Z M 170.371094 15.742188 "/>
</g>
<mask id="mask40">
  <g filter="url(#alpha)">
<rect x="0" y="0" width="270" height="34" style="fill:rgb(0%,0%,0%);fill-opacity:0.647059;stroke:none;"/>
  </g>
</mask>
<clipPath id="clip41">
  <rect x="0" y="0" width="270" height="34"/>
</clipPath>
<g id="surface125" clip-path="url(#clip41)">
<path style=" stroke:none;fill-rule:evenodd;fill:rgb(100%,71.372551%,68.627453%);fill-opacity:1;" d="M 249.75 15.878906 C 247.578125 15.800781 245.417969 15.800781 243.269531 15.878906 C 245.414062 15.703125 247.574219 15.703125 249.75 15.878906 Z M 249.75 15.878906 "/>
</g>
<mask id="mask41">
  <g filter="url(#alpha)">
<rect x="0" y="0" width="270" height="34" style="fill:rgb(0%,0%,0%);fill-opacity:0.12549;stroke:none;"/>
  </g>
</mask>
<clipPath id="clip42">
  <rect x="0" y="0" width="270" height="34"/>
</clipPath>
<g id="surface128" clip-path="url(#clip42)">
<path style=" stroke:none;fill-rule:evenodd;fill:rgb(99.607843%,89.019608%,88.235295%);fill-opacity:1;" d="M 197.371094 15.605469 C 197.257812 15.757812 197.707031 15.871094 198.71875 15.945312 C 201.089844 15.761719 203.519531 15.71875 206.011719 15.808594 C 203.492188 15.828125 201.0625 15.898438 198.71875 16.015625 C 197.496094 15.96875 196.6875 15.867188 196.289062 15.707031 C 196.582031 15.660156 196.945312 15.625 197.371094 15.605469 Z M 197.371094 15.605469 "/>
</g>
<mask id="mask42">
  <g filter="url(#alpha)">
<rect x="0" y="0" width="270" height="34" style="fill:rgb(0%,0%,0%);fill-opacity:0.356863;stroke:none;"/>
  </g>
</mask>
<clipPath id="clip43">
  <rect x="0" y="0" width="270" height="34"/>
</clipPath>
<g id="surface131" clip-path="url(#clip43)">
<path style=" stroke:none;fill-rule:evenodd;fill:rgb(100%,90.588236%,89.803922%);fill-opacity:1;" d="M 121.230469 15.945312 C 119.222656 16.085938 117.0625 16.167969 114.75 16.183594 C 114.34375 16.136719 114.164062 16.082031 114.210938 16.015625 C 114.703125 16.046875 115.246094 16.070312 115.828125 16.082031 C 117.566406 15.992188 119.367188 15.949219 121.230469 15.945312 Z M 121.230469 15.945312 "/>
</g>
<mask id="mask43">
  <g filter="url(#alpha)">
<rect x="0" y="0" width="270" height="34" style="fill:rgb(0%,0%,0%);fill-opacity:0.215686;stroke:none;"/>
  </g>
</mask>
<clipPath id="clip44">
  <rect x="0" y="0" width="270" height="34"/>
</clipPath>
<g id="surface134" clip-path="url(#clip44)">
<path style=" stroke:none;fill-rule:evenodd;fill:rgb(100%,98.823529%,98.431373%);fill-opacity:1;" d="M 131.488281 15.742188 C 132.1875 15.78125 132.636719 15.847656 132.839844 15.945312 C 133.285156 16.707031 133.195312 17.453125 132.570312 18.191406 C 132.855469 17.367188 132.496094 16.550781 131.488281 15.742188 Z M 131.488281 15.742188 "/>
</g>
<mask id="mask44">
  <g filter="url(#alpha)">
<rect x="0" y="0" width="270" height="34" style="fill:rgb(0%,0%,0%);fill-opacity:0.380392;stroke:none;"/>
  </g>
</mask>
<clipPath id="clip45">
  <rect x="0" y="0" width="270" height="34"/>
</clipPath>
<g id="surface137" clip-path="url(#clip45)">
<path style=" stroke:none;fill-rule:evenodd;fill:rgb(100%,74.901962%,72.549021%);fill-opacity:1;" d="M 29.96875 15.945312 C 30.996094 15.964844 31.898438 16.011719 32.671875 16.082031 C 31.484375 16.109375 30.582031 16.0625 29.96875 15.945312 Z M 29.96875 15.945312 "/>
</g>
<mask id="mask45">
  <g filter="url(#alpha)">
<rect x="0" y="0" width="270" height="34" style="fill:rgb(0%,0%,0%);fill-opacity:0.32549;stroke:none;"/>
  </g>
</mask>
<clipPath id="clip46">
  <rect x="0" y="0" width="270" height="34"/>
</clipPath>
<g id="surface140" clip-path="url(#clip46)">
<path style=" stroke:none;fill-rule:evenodd;fill:rgb(100%,91.37255%,90.196079%);fill-opacity:1;" d="M 47.789062 15.945312 C 46.316406 16.042969 44.789062 16.136719 43.199219 16.21875 C 41.972656 16.234375 41.339844 16.164062 41.308594 16.015625 C 41.804688 16.046875 42.34375 16.070312 42.929688 16.082031 C 44.507812 16.007812 46.125 15.960938 47.789062 15.945312 Z M 47.789062 15.945312 "/>
</g>
<mask id="mask46">
  <g filter="url(#alpha)">
<rect x="0" y="0" width="270" height="34" style="fill:rgb(0%,0%,0%);fill-opacity:0.207843;stroke:none;"/>
  </g>
</mask>
<clipPath id="clip47">
  <rect x="0" y="0" width="270" height="34"/>
</clipPath>
<g id="surface143" clip-path="url(#clip47)">
<path style=" stroke:none;fill-rule:evenodd;fill:rgb(100%,72.549021%,69.01961%);fill-opacity:1;" d="M 86.128906 16.015625 C 87.210938 16.015625 87.75 16.082031 87.75 16.21875 C 87.03125 16.171875 86.488281 16.105469 86.128906 16.015625 Z M 86.128906 16.015625 "/>
</g>
<mask id="mask47">
  <g filter="url(#alpha)">
<rect x="0" y="0" width="270" height="34" style="fill:rgb(0%,0%,0%);fill-opacity:0.192157;stroke:none;"/>
  </g>
</mask>
<clipPath id="clip48">
  <rect x="0" y="0" width="270" height="34"/>
</clipPath>
<g id="surface146" clip-path="url(#clip48)">
<path style=" stroke:none;fill-rule:evenodd;fill:rgb(100%,89.019608%,87.843138%);fill-opacity:1;" d="M 124.46875 16.015625 C 125.550781 16.015625 126.089844 16.082031 126.089844 16.21875 C 125.371094 16.171875 124.832031 16.105469 124.46875 16.015625 Z M 124.46875 16.015625 "/>
</g>
<mask id="mask48">
  <g filter="url(#alpha)">
<rect x="0" y="0" width="270" height="34" style="fill:rgb(0%,0%,0%);fill-opacity:0.364706;stroke:none;"/>
  </g>
</mask>
<clipPath id="clip49">
  <rect x="0" y="0" width="270" height="34"/>
</clipPath>
<g id="surface149" clip-path="url(#clip49)">
<path style=" stroke:none;fill-rule:evenodd;fill:rgb(100%,76.862746%,74.509805%);fill-opacity:1;" d="M 149.308594 16.015625 C 150.390625 16.015625 150.929688 16.082031 150.929688 16.21875 C 150.210938 16.171875 149.671875 16.105469 149.308594 16.015625 Z M 149.308594 16.015625 "/>
</g>
<mask id="mask49">
  <g filter="url(#alpha)">
<rect x="0" y="0" width="270" height="34" style="fill:rgb(0%,0%,0%);fill-opacity:0.603922;stroke:none;"/>
  </g>
</mask>
<clipPath id="clip50">
  <rect x="0" y="0" width="270" height="34"/>
</clipPath>
<g id="surface152" clip-path="url(#clip50)">
<path style=" stroke:none;fill-rule:evenodd;fill:rgb(99.215686%,60.000002%,55.686277%);fill-opacity:1;" d="M 182.25 16.015625 C 184.207031 16 186.007812 16.046875 187.648438 16.148438 C 185.71875 16.148438 183.917969 16.101562 182.25 16.015625 Z M 182.25 16.015625 "/>
</g>
<mask id="mask50">
  <g filter="url(#alpha)">
<rect x="0" y="0" width="270" height="34" style="fill:rgb(0%,0%,0%);fill-opacity:0.00392157;stroke:none;"/>
  </g>
</mask>
<clipPath id="clip51">
  <rect x="0" y="0" width="270" height="34"/>
</clipPath>
<g id="surface155" clip-path="url(#clip51)">
<path style=" stroke:none;fill-rule:evenodd;fill:rgb(100%,83.529413%,81.960785%);fill-opacity:1;" d="M 52.109375 16.015625 C 52.648438 16.035156 53.011719 16.082031 53.191406 16.148438 C 52.46875 16.148438 52.109375 16.105469 52.109375 16.015625 Z M 52.109375 16.015625 "/>
</g>
<mask id="mask51">
  <g filter="url(#alpha)">
<rect x="0" y="0" width="270" height="34" style="fill:rgb(0%,0%,0%);fill-opacity:0.211765;stroke:none;"/>
  </g>
</mask>
<clipPath id="clip52">
  <rect x="0" y="0" width="270" height="34"/>
</clipPath>
<g id="surface158" clip-path="url(#clip52)">
<path style=" stroke:none;fill-rule:evenodd;fill:rgb(100%,98.039216%,97.647059%);fill-opacity:1;" d="M 106.648438 15.605469 C 107.992188 15.714844 108.800781 15.875 109.078125 16.082031 C 109.527344 16.796875 109.4375 17.5 108.808594 18.191406 C 108.898438 17.53125 108.808594 16.875 108.539062 16.21875 C 108.195312 15.996094 107.566406 15.792969 106.648438 15.605469 Z M 106.648438 15.605469 "/>
</g>
<mask id="mask52">
  <g filter="url(#alpha)">
<rect x="0" y="0" width="270" height="34" style="fill:rgb(0%,0%,0%);fill-opacity:0.196078;stroke:none;"/>
  </g>
</mask>
<clipPath id="clip53">
  <rect x="0" y="0" width="270" height="34"/>
</clipPath>
<g id="surface161" clip-path="url(#clip53)">
<path style=" stroke:none;fill-rule:evenodd;fill:rgb(99.607843%,77.254903%,75.294119%);fill-opacity:1;" d="M 171.449219 16.015625 C 172.273438 16.007812 172.816406 16.054688 173.070312 16.148438 C 172.246094 16.15625 171.707031 16.109375 171.449219 16.015625 Z M 171.449219 16.015625 "/>
</g>
<mask id="mask53">
  <g filter="url(#alpha)">
<rect x="0" y="0" width="270" height="34" style="fill:rgb(0%,0%,0%);fill-opacity:0.890196;stroke:none;"/>
  </g>
</mask>
<clipPath id="clip54">
  <rect x="0" y="0" width="270" height="34"/>
</clipPath>
<g id="surface164" clip-path="url(#clip54)">
<path style=" stroke:none;fill-rule:evenodd;fill:rgb(100%,67.843139%,63.137257%);fill-opacity:1;" d="M 32.671875 16.082031 C 33.605469 16.117188 34.324219 16.1875 34.828125 16.285156 C 33.679688 16.28125 32.957031 16.214844 32.671875 16.082031 Z M 32.671875 16.082031 "/>
</g>
<mask id="mask54">
  <g filter="url(#alpha)">
<rect x="0" y="0" width="270" height="34" style="fill:rgb(0%,0%,0%);fill-opacity:0.337255;stroke:none;"/>
  </g>
</mask>
<clipPath id="clip55">
  <rect x="0" y="0" width="270" height="34"/>
</clipPath>
<g id="surface167" clip-path="url(#clip55)">
<path style=" stroke:none;fill-rule:evenodd;fill:rgb(100%,99.215686%,99.215686%);fill-opacity:1;" d="M 82.351562 16.015625 C 82.195312 16.066406 81.925781 16.113281 81.539062 16.148438 C 81.617188 16.855469 81.167969 17.535156 80.191406 18.191406 C 80.101562 17.507812 80.191406 16.828125 80.460938 16.148438 C 80.902344 16.058594 81.53125 16.015625 82.351562 16.015625 Z M 82.351562 16.015625 "/>
</g>
<mask id="mask55">
  <g filter="url(#alpha)">
<rect x="0" y="0" width="270" height="34" style="fill:rgb(0%,0%,0%);fill-opacity:0.0941176;stroke:none;"/>
  </g>
</mask>
<clipPath id="clip56">
  <rect x="0" y="0" width="270" height="34"/>
</clipPath>
<g id="surface170" clip-path="url(#clip56)">
<path style=" stroke:none;fill-rule:evenodd;fill:rgb(100%,88.627452%,87.843138%);fill-opacity:1;" d="M 95.851562 16.082031 C 95.683594 16.804688 95.144531 17.507812 94.230469 18.191406 C 94.140625 17.507812 94.230469 16.828125 94.5 16.148438 C 94.863281 16.097656 95.3125 16.074219 95.851562 16.082031 Z M 95.851562 16.082031 "/>
</g>
<mask id="mask56">
  <g filter="url(#alpha)">
<rect x="0" y="0" width="270" height="34" style="fill:rgb(0%,0%,0%);fill-opacity:0.0235294;stroke:none;"/>
  </g>
</mask>
<clipPath id="clip57">
  <rect x="0" y="0" width="270" height="34"/>
</clipPath>
<g id="surface173" clip-path="url(#clip57)">
<path style=" stroke:none;fill-rule:evenodd;fill:rgb(100%,96.470588%,96.078432%);fill-opacity:1;" d="M 209.789062 16.082031 C 210.277344 16.128906 210.457031 16.199219 210.328125 16.285156 C 210.488281 16.4375 210.308594 16.574219 209.789062 16.695312 C 209.253906 16.707031 208.894531 16.683594 208.710938 16.625 C 209.71875 16.480469 210.078125 16.300781 209.789062 16.082031 Z M 209.789062 16.082031 "/>
</g>
<mask id="mask57">
  <g filter="url(#alpha)">
<rect x="0" y="0" width="270" height="34" style="fill:rgb(0%,0%,0%);fill-opacity:0.435294;stroke:none;"/>
  </g>
</mask>
<clipPath id="clip58">
  <rect x="0" y="0" width="270" height="34"/>
</clipPath>
<g id="surface176" clip-path="url(#clip58)">
<path style=" stroke:none;fill-rule:evenodd;fill:rgb(100%,99.215686%,99.215686%);fill-opacity:1;" d="M 145.53125 16.015625 C 145.089844 16.105469 144.460938 16.171875 143.640625 16.21875 C 143.546875 16.886719 143.277344 17.542969 142.828125 18.191406 C 142.742188 17.507812 142.828125 16.828125 143.101562 16.148438 C 143.816406 16.078125 144.628906 16.03125 145.53125 16.015625 Z M 145.53125 16.015625 "/>
</g>
<mask id="mask58">
  <g filter="url(#alpha)">
<rect x="0" y="0" width="270" height="34" style="fill:rgb(0%,0%,0%);fill-opacity:0.74902;stroke:none;"/>
  </g>
</mask>
<clipPath id="clip59">
  <rect x="0" y="0" width="270" height="34"/>
</clipPath>
<g id="surface179" clip-path="url(#clip59)">
<path style=" stroke:none;fill-rule:evenodd;fill:rgb(99.607843%,95.294118%,94.901961%);fill-opacity:1;" d="M 209.789062 15.46875 C 212.566406 15.558594 214.09375 15.785156 214.378906 16.148438 C 214.621094 16.808594 214.710938 17.476562 214.648438 18.15625 C 214.328125 18.1875 213.96875 18.199219 213.570312 18.191406 C 213.660156 17.464844 213.570312 16.738281 213.300781 16.015625 C 212.59375 15.777344 211.425781 15.597656 209.789062 15.46875 Z M 209.789062 15.46875 "/>
</g>
<mask id="mask59">
  <g filter="url(#alpha)">
<rect x="0" y="0" width="270" height="34" style="fill:rgb(0%,0%,0%);fill-opacity:0.317647;stroke:none;"/>
  </g>
</mask>
<clipPath id="clip60">
  <rect x="0" y="0" width="270" height="34"/>
</clipPath>
<g id="surface182" clip-path="url(#clip60)">
<path style=" stroke:none;fill-rule:evenodd;fill:rgb(100%,71.372551%,67.843139%);fill-opacity:1;" d="M 236.25 16.148438 C 236.164062 16.261719 235.804688 16.351562 235.171875 16.421875 C 235.023438 16.292969 235.382812 16.203125 236.25 16.148438 Z M 236.25 16.148438 "/>
</g>
<mask id="mask60">
  <g filter="url(#alpha)">
<rect x="0" y="0" width="270" height="34" style="fill:rgb(0%,0%,0%);fill-opacity:0.192157;stroke:none;"/>
  </g>
</mask>
<clipPath id="clip61">
  <rect x="0" y="0" width="270" height="34"/>
</clipPath>
<g id="surface185" clip-path="url(#clip61)">
<path style=" stroke:none;fill-rule:evenodd;fill:rgb(100%,96.078432%,95.686275%);fill-opacity:1;" d="M 243.269531 15.878906 C 242.027344 16.023438 240.859375 16.183594 239.761719 16.355469 C 238.171875 17.007812 239.699219 17.480469 244.351562 17.78125 C 240.269531 17.664062 238.289062 17.335938 238.410156 16.796875 C 238.394531 16.527344 239.027344 16.292969 240.300781 16.082031 C 241.105469 15.96875 242.09375 15.902344 243.269531 15.878906 Z M 243.269531 15.878906 "/>
</g>
<mask id="mask61">
  <g filter="url(#alpha)">
<rect x="0" y="0" width="270" height="34" style="fill:rgb(0%,0%,0%);fill-opacity:0.0941176;stroke:none;"/>
  </g>
</mask>
<clipPath id="clip62">
  <rect x="0" y="0" width="270" height="34"/>
</clipPath>
<g id="surface188" clip-path="url(#clip62)">
<path style=" stroke:none;fill-rule:evenodd;fill:rgb(100%,90.980393%,89.803922%);fill-opacity:1;" d="M 34.828125 16.285156 C 36.460938 16.378906 37.179688 16.535156 36.988281 16.761719 C 36.292969 16.605469 35.570312 16.445312 34.828125 16.285156 Z M 34.828125 16.285156 "/>
</g>
<mask id="mask62">
  <g filter="url(#alpha)">
<rect x="0" y="0" width="270" height="34" style="fill:rgb(0%,0%,0%);fill-opacity:0.847059;stroke:none;"/>
  </g>
</mask>
<clipPath id="clip63">
  <rect x="0" y="0" width="270" height="34"/>
</clipPath>
<g id="surface191" clip-path="url(#clip63)">
<path style=" stroke:none;fill-rule:evenodd;fill:rgb(98.039216%,47.450981%,41.568628%);fill-opacity:1;" d="M 69.390625 14.246094 C 69.570312 14.246094 69.75 14.246094 69.929688 14.246094 C 69.929688 15.5625 69.929688 16.875 69.929688 18.191406 C 67.769531 18.191406 65.609375 18.191406 63.449219 18.191406 C 63.273438 16.910156 63.453125 15.640625 63.988281 14.382812 C 63.988281 15.628906 63.988281 16.875 63.988281 18.121094 C 65.789062 18.121094 67.589844 18.121094 69.390625 18.121094 C 69.390625 16.828125 69.390625 15.539062 69.390625 14.246094 Z M 69.390625 14.246094 "/>
</g>
<mask id="mask63">
  <g filter="url(#alpha)">
<rect x="0" y="0" width="270" height="34" style="fill:rgb(0%,0%,0%);fill-opacity:0.329412;stroke:none;"/>
  </g>
</mask>
<clipPath id="clip64">
  <rect x="0" y="0" width="270" height="34"/>
</clipPath>
<g id="surface194" clip-path="url(#clip64)">
<path style=" stroke:none;fill-rule:evenodd;fill:rgb(97.254902%,59.215689%,57.254905%);fill-opacity:1;" d="M 210.328125 16.285156 C 211.03125 16.433594 211.03125 16.59375 210.328125 16.761719 C 210.003906 16.753906 209.824219 16.730469 209.789062 16.695312 C 210.308594 16.574219 210.488281 16.4375 210.328125 16.285156 Z M 210.328125 16.285156 "/>
</g>
<mask id="mask64">
  <g filter="url(#alpha)">
<rect x="0" y="0" width="270" height="34" style="fill:rgb(0%,0%,0%);fill-opacity:0.25098;stroke:none;"/>
  </g>
</mask>
<clipPath id="clip65">
  <rect x="0" y="0" width="270" height="34"/>
</clipPath>
<g id="surface197" clip-path="url(#clip65)">
<path style=" stroke:none;fill-rule:evenodd;fill:rgb(100%,76.47059%,74.901962%);fill-opacity:1;" d="M 28.890625 16.761719 C 29.609375 16.761719 29.96875 16.808594 29.96875 16.898438 C 29.429688 16.875 29.070312 16.828125 28.890625 16.761719 Z M 28.890625 16.761719 "/>
</g>
<mask id="mask65">
  <g filter="url(#alpha)">
<rect x="0" y="0" width="270" height="34" style="fill:rgb(0%,0%,0%);fill-opacity:0.431373;stroke:none;"/>
  </g>
</mask>
<clipPath id="clip66">
  <rect x="0" y="0" width="270" height="34"/>
</clipPath>
<g id="surface200" clip-path="url(#clip66)">
<path style=" stroke:none;fill-rule:evenodd;fill:rgb(100%,67.450982%,63.921571%);fill-opacity:1;" d="M 198.988281 16.695312 C 198.734375 16.789062 198.195312 16.835938 197.371094 16.828125 C 197.625 16.734375 198.164062 16.6875 198.988281 16.695312 Z M 198.988281 16.695312 "/>
</g>
<mask id="mask66">
  <g filter="url(#alpha)">
<rect x="0" y="0" width="270" height="34" style="fill:rgb(0%,0%,0%);fill-opacity:0.203922;stroke:none;"/>
  </g>
</mask>
<clipPath id="clip67">
  <rect x="0" y="0" width="270" height="34"/>
</clipPath>
<g id="surface203" clip-path="url(#clip67)">
<path style=" stroke:none;fill-rule:evenodd;fill:rgb(98.431373%,53.333336%,49.803922%);fill-opacity:1;" d="M 251.910156 16.082031 C 252.242188 16.089844 252.511719 16.113281 252.71875 16.148438 C 253.164062 16.617188 253.074219 17.070312 252.449219 17.511719 C 252.449219 17.441406 252.449219 17.375 252.449219 17.304688 C 252.492188 16.894531 252.308594 16.488281 251.910156 16.082031 Z M 251.910156 16.082031 "/>
</g>
<mask id="mask67">
  <g filter="url(#alpha)">
<rect x="0" y="0" width="270" height="34" style="fill:rgb(0%,0%,0%);fill-opacity:0.8;stroke:none;"/>
  </g>
</mask>
<clipPath id="clip68">
  <rect x="0" y="0" width="270" height="34"/>
</clipPath>
<g id="surface206" clip-path="url(#clip68)">
<path style=" stroke:none;fill-rule:evenodd;fill:rgb(96.470588%,49.019608%,45.882353%);fill-opacity:1;" d="M 254.609375 14.3125 C 254.992188 14.253906 255.53125 14.230469 256.230469 14.246094 C 256.230469 15.5625 256.230469 16.875 256.230469 18.191406 C 254.96875 18.191406 253.710938 18.191406 252.449219 18.191406 C 252.578125 18.101562 252.398438 18.035156 251.910156 17.984375 C 251.941406 17.949219 252.121094 17.925781 252.449219 17.917969 C 252.929688 17.972656 253.109375 18.042969 252.988281 18.121094 C 253.890625 18.121094 254.789062 18.121094 255.691406 18.121094 C 256.042969 16.828125 255.683594 15.558594 254.609375 14.3125 Z M 254.609375 14.3125 "/>
</g>
<mask id="mask68">
  <g filter="url(#alpha)">
<rect x="0" y="0" width="270" height="34" style="fill:rgb(0%,0%,0%);fill-opacity:0.2;stroke:none;"/>
  </g>
</mask>
<clipPath id="clip69">
  <rect x="0" y="0" width="270" height="34"/>
</clipPath>
<g id="surface209" clip-path="url(#clip69)">
<path style=" stroke:none;fill-rule:evenodd;fill:rgb(100%,66.666669%,63.529414%);fill-opacity:1;" d="M 113.671875 16.761719 C 113.710938 16.867188 113.347656 16.933594 112.589844 16.964844 C 112.550781 16.863281 112.910156 16.792969 113.671875 16.761719 Z M 113.671875 16.761719 "/>
</g>
<mask id="mask69">
  <g filter="url(#alpha)">
<rect x="0" y="0" width="270" height="34" style="fill:rgb(0%,0%,0%);fill-opacity:0.32549;stroke:none;"/>
  </g>
</mask>
<clipPath id="clip70">
  <rect x="0" y="0" width="270" height="34"/>
</clipPath>
<g id="surface212" clip-path="url(#clip70)">
<path style=" stroke:none;fill-rule:evenodd;fill:rgb(100%,92.54902%,91.764706%);fill-opacity:1;" d="M 13.769531 17.035156 C 14.550781 16.957031 15.449219 16.945312 16.46875 17 C 17.378906 17.128906 18.277344 17.25 19.171875 17.375 C 17.371094 17.261719 15.570312 17.148438 13.769531 17.035156 Z M 13.769531 17.035156 "/>
</g>
<mask id="mask70">
  <g filter="url(#alpha)">
<rect x="0" y="0" width="270" height="34" style="fill:rgb(0%,0%,0%);fill-opacity:0.458824;stroke:none;"/>
  </g>
</mask>
<clipPath id="clip71">
  <rect x="0" y="0" width="270" height="34"/>
</clipPath>
<g id="surface215" clip-path="url(#clip71)">
<path style=" stroke:none;fill-rule:evenodd;fill:rgb(97.647059%,53.725493%,50.196081%);fill-opacity:1;" d="M 52.109375 17.035156 C 50.09375 17.023438 48.113281 17.042969 46.171875 17.101562 C 46.230469 17.058594 46.410156 17.027344 46.710938 17 C 48.613281 16.945312 50.414062 16.957031 52.109375 17.035156 Z M 52.109375 17.035156 "/>
</g>
<mask id="mask71">
  <g filter="url(#alpha)">
<rect x="0" y="0" width="270" height="34" style="fill:rgb(0%,0%,0%);fill-opacity:0.203922;stroke:none;"/>
  </g>
</mask>
<clipPath id="clip72">
  <rect x="0" y="0" width="270" height="34"/>
</clipPath>
<g id="surface218" clip-path="url(#clip72)">
<path style=" stroke:none;fill-rule:evenodd;fill:rgb(99.607843%,64.313728%,60.784316%);fill-opacity:1;" d="M 197.371094 16.828125 C 197.410156 16.933594 197.050781 17 196.289062 17.035156 C 196.25 16.929688 196.609375 16.863281 197.371094 16.828125 Z M 197.371094 16.828125 "/>
</g>
<mask id="mask72">
  <g filter="url(#alpha)">
<rect x="0" y="0" width="270" height="34" style="fill:rgb(0%,0%,0%);fill-opacity:0.184314;stroke:none;"/>
  </g>
</mask>
<clipPath id="clip73">
  <rect x="0" y="0" width="270" height="34"/>
</clipPath>
<g id="surface221" clip-path="url(#clip73)">
<path style=" stroke:none;fill-rule:evenodd;fill:rgb(100%,94.901961%,94.509804%);fill-opacity:1;" d="M 201.691406 16.964844 C 199.246094 17.328125 199.605469 17.621094 202.769531 17.851562 C 199.320312 17.773438 198.238281 17.523438 199.53125 17.101562 C 200.113281 17.019531 200.832031 16.976562 201.691406 16.964844 Z M 201.691406 16.964844 "/>
</g>
<mask id="mask73">
  <g filter="url(#alpha)">
<rect x="0" y="0" width="270" height="34" style="fill:rgb(0%,0%,0%);fill-opacity:0.219608;stroke:none;"/>
  </g>
</mask>
<clipPath id="clip74">
  <rect x="0" y="0" width="270" height="34"/>
</clipPath>
<g id="surface224" clip-path="url(#clip74)">
<path style=" stroke:none;fill-rule:evenodd;fill:rgb(100%,81.568629%,79.607844%);fill-opacity:1;" d="M 125.011719 17.035156 C 123.132812 17.011719 121.332031 17.046875 119.609375 17.136719 C 118.351562 17.261719 118.167969 17.410156 119.070312 17.578125 C 116.933594 17.371094 117.113281 17.175781 119.609375 17 C 121.515625 16.945312 123.3125 16.957031 125.011719 17.035156 Z M 125.011719 17.035156 "/>
</g>
<mask id="mask74">
  <g filter="url(#alpha)">
<rect x="0" y="0" width="270" height="34" style="fill:rgb(0%,0%,0%);fill-opacity:0.192157;stroke:none;"/>
  </g>
</mask>
<clipPath id="clip75">
  <rect x="0" y="0" width="270" height="34"/>
</clipPath>
<g id="surface227" clip-path="url(#clip75)">
<path style=" stroke:none;fill-rule:evenodd;fill:rgb(100%,92.941177%,92.54902%);fill-opacity:1;" d="M 187.648438 16.148438 C 191.738281 16.238281 193.898438 16.542969 194.128906 17.066406 C 193.996094 17.660156 191.65625 18.011719 187.109375 18.121094 C 188.851562 18.003906 190.382812 17.847656 191.699219 17.644531 C 194.46875 16.960938 193.117188 16.464844 187.648438 16.148438 Z M 187.648438 16.148438 "/>
</g>
<mask id="mask75">
  <g filter="url(#alpha)">
<rect x="0" y="0" width="270" height="34" style="fill:rgb(0%,0%,0%);fill-opacity:0.0117647;stroke:none;"/>
  </g>
</mask>
<clipPath id="clip76">
  <rect x="0" y="0" width="270" height="34"/>
</clipPath>
<g id="surface230" clip-path="url(#clip76)">
<path style=" stroke:none;fill-rule:evenodd;fill:rgb(100%,87.058824%,86.274511%);fill-opacity:1;" d="M 209.789062 17.035156 C 210.613281 17.101562 210.972656 17.203125 210.871094 17.339844 C 210.972656 17.476562 210.613281 17.578125 209.789062 17.644531 C 209.789062 17.441406 209.789062 17.238281 209.789062 17.035156 Z M 209.789062 17.035156 "/>
</g>
<mask id="mask76">
  <g filter="url(#alpha)">
<rect x="0" y="0" width="270" height="34" style="fill:rgb(0%,0%,0%);fill-opacity:0.156863;stroke:none;"/>
  </g>
</mask>
<clipPath id="clip77">
  <rect x="0" y="0" width="270" height="34"/>
</clipPath>
<g id="surface233" clip-path="url(#clip77)">
<path style=" stroke:none;fill-rule:evenodd;fill:rgb(99.607843%,94.117647%,93.725491%);fill-opacity:1;" d="M 46.171875 17.101562 C 45.714844 17.230469 45.535156 17.367188 45.628906 17.511719 C 44.984375 17.484375 44.625 17.429688 44.550781 17.339844 C 44.660156 17.207031 45.203125 17.128906 46.171875 17.101562 Z M 46.171875 17.101562 "/>
</g>
<mask id="mask77">
  <g filter="url(#alpha)">
<rect x="0" y="0" width="270" height="34" style="fill:rgb(0%,0%,0%);fill-opacity:0.0627451;stroke:none;"/>
  </g>
</mask>
<clipPath id="clip78">
  <rect x="0" y="0" width="270" height="34"/>
</clipPath>
<g id="surface236" clip-path="url(#clip78)">
<path style=" stroke:none;fill-rule:evenodd;fill:rgb(100%,87.843138%,85.882354%);fill-opacity:1;" d="M 125.011719 17.035156 C 125.550781 17.035156 126.089844 17.035156 126.628906 17.035156 C 126.792969 17.207031 126.613281 17.367188 126.089844 17.511719 C 126.261719 17.324219 125.898438 17.167969 125.011719 17.035156 Z M 125.011719 17.035156 "/>
</g>
<mask id="mask78">
  <g filter="url(#alpha)">
<rect x="0" y="0" width="270" height="34" style="fill:rgb(0%,0%,0%);fill-opacity:0.00784314;stroke:none;"/>
  </g>
</mask>
<clipPath id="clip79">
  <rect x="0" y="0" width="270" height="34"/>
</clipPath>
<g id="surface239" clip-path="url(#clip79)">
<path style=" stroke:none;fill-rule:evenodd;fill:rgb(99.607843%,92.156863%,91.37255%);fill-opacity:1;" d="M 170.910156 17.238281 C 172.089844 17.199219 172.988281 17.265625 173.609375 17.441406 C 172.578125 17.402344 171.679688 17.335938 170.910156 17.238281 Z M 170.910156 17.238281 "/>
</g>
<mask id="mask79">
  <g filter="url(#alpha)">
<rect x="0" y="0" width="270" height="34" style="fill:rgb(0%,0%,0%);fill-opacity:0.509804;stroke:none;"/>
  </g>
</mask>
<clipPath id="clip80">
  <rect x="0" y="0" width="270" height="34"/>
</clipPath>
<g id="surface242" clip-path="url(#clip80)">
<path style=" stroke:none;fill-rule:evenodd;fill:rgb(100%,62.352943%,58.039218%);fill-opacity:1;" d="M 13.230469 17.171875 C 12.917969 17.324219 12.195312 17.4375 11.070312 17.511719 C 11.382812 17.355469 12.101562 17.242188 13.230469 17.171875 Z M 13.230469 17.171875 "/>
</g>
<mask id="mask80">
  <g filter="url(#alpha)">
<rect x="0" y="0" width="270" height="34" style="fill:rgb(0%,0%,0%);fill-opacity:0.188235;stroke:none;"/>
  </g>
</mask>
<clipPath id="clip81">
  <rect x="0" y="0" width="270" height="34"/>
</clipPath>
<g id="surface245" clip-path="url(#clip81)">
<path style=" stroke:none;fill-rule:evenodd;fill:rgb(100%,95.686275%,95.294118%);fill-opacity:1;" d="M 36.988281 16.761719 C 38.042969 17.15625 37.324219 17.496094 34.828125 17.78125 C 36.421875 17.476562 37.140625 17.136719 36.988281 16.761719 Z M 36.988281 16.761719 "/>
</g>
<mask id="mask81">
  <g filter="url(#alpha)">
<rect x="0" y="0" width="270" height="34" style="fill:rgb(0%,0%,0%);fill-opacity:0.211765;stroke:none;"/>
  </g>
</mask>
<clipPath id="clip82">
  <rect x="0" y="0" width="270" height="34"/>
</clipPath>
<g id="surface248" clip-path="url(#clip82)">
<path style=" stroke:none;fill-rule:evenodd;fill:rgb(99.607843%,96.078432%,96.078432%);fill-opacity:1;" d="M 173.609375 17.441406 C 174.636719 17.457031 175.359375 17.527344 175.769531 17.644531 C 174.742188 17.628906 174.019531 17.5625 173.609375 17.441406 Z M 173.609375 17.441406 "/>
</g>
<mask id="mask82">
  <g filter="url(#alpha)">
<rect x="0" y="0" width="270" height="34" style="fill:rgb(0%,0%,0%);fill-opacity:0.615686;stroke:none;"/>
  </g>
</mask>
<clipPath id="clip83">
  <rect x="0" y="0" width="270" height="34"/>
</clipPath>
<g id="surface251" clip-path="url(#clip83)">
<path style=" stroke:none;fill-rule:evenodd;fill:rgb(100%,68.235296%,63.529414%);fill-opacity:1;" d="M 189.269531 17.304688 C 189.179688 17.488281 188.457031 17.601562 187.109375 17.644531 C 187.707031 17.515625 188.425781 17.402344 189.269531 17.304688 Z M 189.269531 17.304688 "/>
</g>
<mask id="mask83">
  <g filter="url(#alpha)">
<rect x="0" y="0" width="270" height="34" style="fill:rgb(0%,0%,0%);fill-opacity:0.243137;stroke:none;"/>
  </g>
</mask>
<clipPath id="clip84">
  <rect x="0" y="0" width="270" height="34"/>
</clipPath>
<g id="surface254" clip-path="url(#clip84)">
<path style=" stroke:none;fill-rule:evenodd;fill:rgb(99.607843%,85.490197%,84.313726%);fill-opacity:1;" d="M 252.449219 17.304688 C 252.449219 17.375 252.449219 17.441406 252.449219 17.511719 C 252.269531 17.578125 251.910156 17.625 251.371094 17.644531 C 251.53125 17.515625 251.890625 17.402344 252.449219 17.304688 Z M 252.449219 17.304688 "/>
</g>
<mask id="mask84">
  <g filter="url(#alpha)">
<rect x="0" y="0" width="270" height="34" style="fill:rgb(0%,0%,0%);fill-opacity:0.00392157;stroke:none;"/>
  </g>
</mask>
<clipPath id="clip85">
  <rect x="0" y="0" width="270" height="34"/>
</clipPath>
<g id="surface257" clip-path="url(#clip85)">
<path style=" stroke:none;fill-rule:evenodd;fill:rgb(100%,96.862745%,96.078432%);fill-opacity:1;" d="M 169.289062 17.578125 C 169.828125 17.601562 170.191406 17.644531 170.371094 17.714844 C 169.648438 17.714844 169.289062 17.667969 169.289062 17.578125 Z M 169.289062 17.578125 "/>
</g>
<mask id="mask85">
  <g filter="url(#alpha)">
<rect x="0" y="0" width="270" height="34" style="fill:rgb(0%,0%,0%);fill-opacity:0.0235294;stroke:none;"/>
  </g>
</mask>
<clipPath id="clip86">
  <rect x="0" y="0" width="270" height="34"/>
</clipPath>
<g id="surface260" clip-path="url(#clip86)">
<path style=" stroke:none;fill-rule:evenodd;fill:rgb(100%,99.215686%,99.215686%);fill-opacity:1;" d="M 236.789062 17.644531 C 237.328125 17.667969 237.691406 17.714844 237.871094 17.78125 C 237.148438 17.78125 236.789062 17.738281 236.789062 17.644531 Z M 236.789062 17.644531 "/>
</g>
<mask id="mask86">
  <g filter="url(#alpha)">
<rect x="0" y="0" width="270" height="34" style="fill:rgb(0%,0%,0%);fill-opacity:0.286275;stroke:none;"/>
  </g>
</mask>
<clipPath id="clip87">
  <rect x="0" y="0" width="270" height="34"/>
</clipPath>
<g id="surface263" clip-path="url(#clip87)">
<path style=" stroke:none;fill-rule:evenodd;fill:rgb(99.215686%,81.176472%,79.607844%);fill-opacity:1;" d="M 175.769531 17.644531 C 176.878906 17.640625 177.777344 17.683594 178.46875 17.78125 C 177.363281 17.789062 176.460938 17.742188 175.769531 17.644531 Z M 175.769531 17.644531 "/>
</g>
<mask id="mask87">
  <g filter="url(#alpha)">
<rect x="0" y="0" width="270" height="34" style="fill:rgb(0%,0%,0%);fill-opacity:0.14902;stroke:none;"/>
  </g>
</mask>
<clipPath id="clip88">
  <rect x="0" y="0" width="270" height="34"/>
</clipPath>
<g id="surface266" clip-path="url(#clip88)">
<path style=" stroke:none;fill-rule:evenodd;fill:rgb(100%,93.725491%,93.333334%);fill-opacity:1;" d="M 34.828125 17.78125 C 34.542969 17.914062 33.820312 17.980469 32.671875 17.984375 C 33.175781 17.886719 33.894531 17.816406 34.828125 17.78125 Z M 34.828125 17.78125 "/>
</g>
<mask id="mask88">
  <g filter="url(#alpha)">
<rect x="0" y="0" width="270" height="34" style="fill:rgb(0%,0%,0%);fill-opacity:0.0117647;stroke:none;"/>
  </g>
</mask>
<clipPath id="clip89">
  <rect x="0" y="0" width="270" height="34"/>
</clipPath>
<g id="surface269" clip-path="url(#clip89)">
<path style=" stroke:none;fill-rule:evenodd;fill:rgb(100%,85.09804%,83.92157%);fill-opacity:1;" d="M 196.289062 17.78125 C 197.191406 17.851562 197.910156 17.941406 198.449219 18.054688 C 197.191406 18.03125 196.46875 17.941406 196.289062 17.78125 Z M 196.289062 17.78125 "/>
</g>
<mask id="mask89">
  <g filter="url(#alpha)">
<rect x="0" y="0" width="270" height="34" style="fill:rgb(0%,0%,0%);fill-opacity:0.00392157;stroke:none;"/>
  </g>
</mask>
<clipPath id="clip90">
  <rect x="0" y="0" width="270" height="34"/>
</clipPath>
<g id="surface272" clip-path="url(#clip90)">
<path style=" stroke:none;fill-rule:evenodd;fill:rgb(99.215686%,87.843138%,86.666667%);fill-opacity:1;" d="M 237.871094 17.78125 C 238.410156 17.804688 238.769531 17.851562 238.949219 17.917969 C 238.230469 17.917969 237.871094 17.871094 237.871094 17.78125 Z M 237.871094 17.78125 "/>
</g>
<mask id="mask90">
  <g filter="url(#alpha)">
<rect x="0" y="0" width="270" height="34" style="fill:rgb(0%,0%,0%);fill-opacity:0.0941176;stroke:none;"/>
  </g>
</mask>
<clipPath id="clip91">
  <rect x="0" y="0" width="270" height="34"/>
</clipPath>
<g id="surface275" clip-path="url(#clip91)">
<path style=" stroke:none;fill-rule:evenodd;fill:rgb(100%,64.705884%,60.392159%);fill-opacity:1;" d="M 13.769531 17.851562 C 14.59375 17.84375 15.132812 17.890625 15.390625 17.984375 C 14.566406 17.992188 14.027344 17.945312 13.769531 17.851562 Z M 13.769531 17.851562 "/>
</g>
<mask id="mask91">
  <g filter="url(#alpha)">
<rect x="0" y="0" width="270" height="34" style="fill:rgb(0%,0%,0%);fill-opacity:0.0627451;stroke:none;"/>
  </g>
</mask>
<clipPath id="clip92">
  <rect x="0" y="0" width="270" height="34"/>
</clipPath>
<g id="surface278" clip-path="url(#clip92)">
<path style=" stroke:none;fill-rule:evenodd;fill:rgb(100%,85.09804%,83.529413%);fill-opacity:1;" d="M 210.871094 18.191406 C 209.996094 18.152344 209.097656 18.128906 208.171875 18.121094 C 208.851562 18.054688 209.574219 17.988281 210.328125 17.917969 C 210.832031 18 211.011719 18.089844 210.871094 18.191406 Z M 210.871094 18.191406 "/>
</g>
<mask id="mask92">
  <g filter="url(#alpha)">
<rect x="0" y="0" width="270" height="34" style="fill:rgb(0%,0%,0%);fill-opacity:0.0745098;stroke:none;"/>
  </g>
</mask>
<clipPath id="clip93">
  <rect x="0" y="0" width="270" height="34"/>
</clipPath>
<g id="surface281" clip-path="url(#clip93)">
<path style=" stroke:none;fill-rule:evenodd;fill:rgb(99.607843%,96.470588%,96.078432%);fill-opacity:1;" d="M 32.671875 17.984375 C 32.246094 18.09375 31.523438 18.140625 30.511719 18.121094 C 31.058594 18.042969 31.777344 17.996094 32.671875 17.984375 Z M 32.671875 17.984375 "/>
</g>
<mask id="mask93">
  <g filter="url(#alpha)">
<rect x="0" y="0" width="270" height="34" style="fill:rgb(0%,0%,0%);fill-opacity:0.054902;stroke:none;"/>
  </g>
</mask>
<clipPath id="clip94">
  <rect x="0" y="0" width="270" height="34"/>
</clipPath>
<g id="surface284" clip-path="url(#clip94)">
<path style=" stroke:none;fill-rule:evenodd;fill:rgb(100%,90.196079%,90.196079%);fill-opacity:1;" d="M 53.730469 18.191406 C 53.25 18.148438 52.707031 18.125 52.109375 18.121094 C 53.269531 17.929688 53.808594 17.953125 53.730469 18.191406 Z M 53.730469 18.191406 "/>
</g>
<mask id="mask94">
  <g filter="url(#alpha)">
<rect x="0" y="0" width="270" height="34" style="fill:rgb(0%,0%,0%);fill-opacity:0.0431373;stroke:none;"/>
  </g>
</mask>
<clipPath id="clip95">
  <rect x="0" y="0" width="270" height="34"/>
</clipPath>
<g id="surface287" clip-path="url(#clip95)">
<path style=" stroke:none;fill-rule:evenodd;fill:rgb(99.607843%,94.509804%,94.509804%);fill-opacity:1;" d="M 126.628906 18.191406 C 126.148438 18.148438 125.609375 18.125 125.011719 18.121094 C 126.171875 17.929688 126.710938 17.953125 126.628906 18.191406 Z M 126.628906 18.191406 "/>
</g>
<mask id="mask95">
  <g filter="url(#alpha)">
<rect x="0" y="0" width="270" height="34" style="fill:rgb(0%,0%,0%);fill-opacity:0.121569;stroke:none;"/>
  </g>
</mask>
<clipPath id="clip96">
  <rect x="0" y="0" width="270" height="34"/>
</clipPath>
<g id="surface290" clip-path="url(#clip96)">
<path style=" stroke:none;fill-rule:evenodd;fill:rgb(100%,88.627452%,87.843138%);fill-opacity:1;" d="M 52.109375 18.121094 C 50.863281 18.226562 49.425781 18.273438 47.789062 18.257812 C 46.605469 18.257812 45.523438 18.234375 44.550781 18.191406 C 47.09375 18.199219 49.617188 18.175781 52.109375 18.121094 Z M 52.109375 18.121094 "/>
</g>
<mask id="mask96">
  <g filter="url(#alpha)">
<rect x="0" y="0" width="270" height="34" style="fill:rgb(0%,0%,0%);fill-opacity:0.670588;stroke:none;"/>
  </g>
</mask>
<clipPath id="clip97">
  <rect x="0" y="0" width="270" height="34"/>
</clipPath>
<g id="surface293" clip-path="url(#clip97)">
<path style=" stroke:none;fill-rule:evenodd;fill:rgb(99.215686%,80.000001%,78.823531%);fill-opacity:1;" d="M 125.011719 18.121094 C 123.765625 18.226562 122.324219 18.273438 120.691406 18.257812 C 119.503906 18.257812 118.425781 18.234375 117.449219 18.191406 C 119.996094 18.199219 122.515625 18.175781 125.011719 18.121094 Z M 125.011719 18.121094 "/>
</g>
<mask id="mask97">
  <g filter="url(#alpha)">
<rect x="0" y="0" width="270" height="34" style="fill:rgb(0%,0%,0%);fill-opacity:0.27451;stroke:none;"/>
  </g>
</mask>
<clipPath id="clip98">
  <rect x="0" y="0" width="270" height="34"/>
</clipPath>
<g id="surface296" clip-path="url(#clip98)">
<path style=" stroke:none;fill-rule:evenodd;fill:rgb(99.607843%,92.941177%,92.54902%);fill-opacity:1;" d="M 251.910156 17.984375 C 252.398438 18.035156 252.578125 18.101562 252.449219 18.191406 C 249.40625 18.253906 246.34375 18.253906 243.269531 18.191406 C 246.339844 18.230469 249.21875 18.160156 251.910156 17.984375 Z M 251.910156 17.984375 "/>
</g>
<mask id="mask98">
  <g filter="url(#alpha)">
<rect x="0" y="0" width="270" height="34" style="fill:rgb(0%,0%,0%);fill-opacity:0.0941176;stroke:none;"/>
  </g>
</mask>
<clipPath id="clip99">
  <rect x="0" y="0" width="270" height="34"/>
</clipPath>
<g id="surface299" clip-path="url(#clip99)">
<path style=" stroke:none;fill-rule:evenodd;fill:rgb(100%,87.058824%,86.274511%);fill-opacity:1;" d="M 217.890625 18.871094 C 216.9375 18.933594 215.855469 18.957031 214.648438 18.9375 C 214.648438 19.050781 214.648438 19.164062 214.648438 19.277344 C 214.132812 19.15625 213.949219 19.023438 214.109375 18.871094 C 215.371094 18.871094 216.628906 18.871094 217.890625 18.871094 Z M 217.890625 18.871094 "/>
</g>
</defs>
<g id="surface1">
<use xlink:href="#surface5" mask="url(#mask0)"/>
<use xlink:href="#surface8" mask="url(#mask1)"/>
<use xlink:href="#surface11" mask="url(#mask2)"/>
<use xlink:href="#surface14" mask="url(#mask3)"/>
<use xlink:href="#surface17" mask="url(#mask4)"/>
<use xlink:href="#surface20" mask="url(#mask5)"/>
<use xlink:href="#surface23" mask="url(#mask6)"/>
<use xlink:href="#surface26" mask="url(#mask7)"/>
<use xlink:href="#surface29" mask="url(#mask8)"/>
<use xlink:href="#surface32" mask="url(#mask9)"/>
<use xlink:href="#surface35" mask="url(#mask10)"/>
<use xlink:href="#surface38" mask="url(#mask11)"/>
<use xlink:href="#surface41" mask="url(#mask12)"/>
<use xlink:href="#surface44" mask="url(#mask13)"/>
<use xlink:href="#surface47" mask="url(#mask14)"/>
<use xlink:href="#surface50" mask="url(#mask15)"/>
<use xlink:href="#surface53" mask="url(#mask16)"/>
<use xlink:href="#surface56" mask="url(#mask17)"/>
<use xlink:href="#surface59" mask="url(#mask18)"/>
<use xlink:href="#surface62" mask="url(#mask19)"/>
<use xlink:href="#surface65" mask="url(#mask20)"/>
<use xlink:href="#surface68" mask="url(#mask21)"/>
<use xlink:href="#surface71" mask="url(#mask22)"/>
<use xlink:href="#surface74" mask="url(#mask23)"/>
<use xlink:href="#surface77" mask="url(#mask24)"/>
<use xlink:href="#surface80" mask="url(#mask25)"/>
<use xlink:href="#surface83" mask="url(#mask26)"/>
<use xlink:href="#surface86" mask="url(#mask27)"/>
<use xlink:href="#surface89" mask="url(#mask28)"/>
<use xlink:href="#surface92" mask="url(#mask29)"/>
<use xlink:href="#surface95" mask="url(#mask30)"/>
<use xlink:href="#surface98" mask="url(#mask31)"/>
<use xlink:href="#surface101" mask="url(#mask32)"/>
<use xlink:href="#surface104" mask="url(#mask33)"/>
<use xlink:href="#surface107" mask="url(#mask34)"/>
<use xlink:href="#surface110" mask="url(#mask35)"/>
<use xlink:href="#surface113" mask="url(#mask36)"/>
<use xlink:href="#surface116" mask="url(#mask37)"/>
<use xlink:href="#surface119" mask="url(#mask38)"/>
<use xlink:href="#surface122" mask="url(#mask39)"/>
<use xlink:href="#surface125" mask="url(#mask40)"/>
<use xlink:href="#surface128" mask="url(#mask41)"/>
<use xlink:href="#surface131" mask="url(#mask42)"/>
<use xlink:href="#surface134" mask="url(#mask43)"/>
<use xlink:href="#surface137" mask="url(#mask44)"/>
<use xlink:href="#surface140" mask="url(#mask45)"/>
<use xlink:href="#surface143" mask="url(#mask46)"/>
<use xlink:href="#surface146" mask="url(#mask47)"/>
<use xlink:href="#surface149" mask="url(#mask48)"/>
<use xlink:href="#surface152" mask="url(#mask49)"/>
<use xlink:href="#surface155" mask="url(#mask50)"/>
<use xlink:href="#surface158" mask="url(#mask51)"/>
<use xlink:href="#surface161" mask="url(#mask52)"/>
<use xlink:href="#surface164" mask="url(#mask53)"/>
<use xlink:href="#surface167" mask="url(#mask54)"/>
<use xlink:href="#surface170" mask="url(#mask55)"/>
<use xlink:href="#surface173" mask="url(#mask56)"/>
<use xlink:href="#surface176" mask="url(#mask57)"/>
<use xlink:href="#surface179" mask="url(#mask58)"/>
<use xlink:href="#surface182" mask="url(#mask59)"/>
<use xlink:href="#surface185" mask="url(#mask60)"/>
<use xlink:href="#surface188" mask="url(#mask61)"/>
<use xlink:href="#surface191" mask="url(#mask62)"/>
<use xlink:href="#surface194" mask="url(#mask63)"/>
<use xlink:href="#surface197" mask="url(#mask64)"/>
<use xlink:href="#surface200" mask="url(#mask65)"/>
<use xlink:href="#surface203" mask="url(#mask66)"/>
<use xlink:href="#surface206" mask="url(#mask67)"/>
<use xlink:href="#surface209" mask="url(#mask68)"/>
<use xlink:href="#surface212" mask="url(#mask69)"/>
<use xlink:href="#surface215" mask="url(#mask70)"/>
<use xlink:href="#surface218" mask="url(#mask71)"/>
<use xlink:href="#surface221" mask="url(#mask72)"/>
<use xlink:href="#surface224" mask="url(#mask73)"/>
<use xlink:href="#surface227" mask="url(#mask74)"/>
<use xlink:href="#surface230" mask="url(#mask75)"/>
<use xlink:href="#surface233" mask="url(#mask76)"/>
<use xlink:href="#surface236" mask="url(#mask77)"/>
<use xlink:href="#surface239" mask="url(#mask78)"/>
<use xlink:href="#surface242" mask="url(#mask79)"/>
<use xlink:href="#surface245" mask="url(#mask80)"/>
<use xlink:href="#surface248" mask="url(#mask81)"/>
<use xlink:href="#surface251" mask="url(#mask82)"/>
<use xlink:href="#surface254" mask="url(#mask83)"/>
<use xlink:href="#surface257" mask="url(#mask84)"/>
<use xlink:href="#surface260" mask="url(#mask85)"/>
<use xlink:href="#surface263" mask="url(#mask86)"/>
<use xlink:href="#surface266" mask="url(#mask87)"/>
<use xlink:href="#surface269" mask="url(#mask88)"/>
<use xlink:href="#surface272" mask="url(#mask89)"/>
<use xlink:href="#surface275" mask="url(#mask90)"/>
<use xlink:href="#surface278" mask="url(#mask91)"/>
<use xlink:href="#surface281" mask="url(#mask92)"/>
<use xlink:href="#surface284" mask="url(#mask93)"/>
<use xlink:href="#surface287" mask="url(#mask94)"/>
<use xlink:href="#surface290" mask="url(#mask95)"/>
<use xlink:href="#surface293" mask="url(#mask96)"/>
<use xlink:href="#surface296" mask="url(#mask97)"/>
<use xlink:href="#surface299" mask="url(#mask98)"/>
</g>
</svg>
